<?xml version="1.0" encoding="utf-8"?>
<!-- Generator: Adobe Illustrator 16.0.0, SVG Export Plug-In . SVG Version: 6.00 Build 0)  -->
<!DOCTYPE svg PUBLIC "-//W3C//DTD SVG 1.1//EN" "http://www.w3.org/Graphics/SVG/1.1/DTD/svg11.dtd">
<svg version="1.1" id="Layer_1" xmlns="http://www.w3.org/2000/svg" xmlns:xlink="http://www.w3.org/1999/xlink" x="0px" y="0px"
	 width="600px" height="150px" viewBox="0 0 600 150" enable-background="new 0 0 600 150" xml:space="preserve">
<path fill="#F2D9FF" d="M338.465,33.37c5.585-1.938,11.854-0.456,17.276-2.947c-0.767-8.728-7.441-15.109-12.489-21.688
	c-9.477,0.31-18.105-3.907-26.377-7.962c-5.21,5.08-10.111,10.648-13.53,17.096c-1.905,5.324-2.264,11.137-1.987,16.755
	c3.551,2.54,7.768,3.956,11.528,6.155c4.673,2.637,9.64,5.73,15.224,5.275c0.358-0.619,1.06-1.873,1.418-2.491
	C331.627,39.574,333.986,35.063,338.465,33.37z"/>
<path fill="#885399" d="M370.396,27.232c-1.693-1.01-3.438-1.857-5.131-2.85c-4.934-2.035-3.843-8.857-7.994-11.69
	c-4.104-2.817-9.248-3.208-14.02-3.957c5.048,6.578,11.725,12.96,12.489,21.688c-5.423,2.491-11.691,1.01-17.276,2.947
	c-4.479,1.693-6.838,6.204-8.938,10.193l0.277,1.286c3.223,2.572,8.141,0.732,12.016,1.351c11.268-1.514,23.642-1.888,33.379-8.353
	C376.354,33.597,372.936,30.146,370.396,27.232z"/>
<path fill="#3B1951" d="M399.849,40.062c1.563-0.017,4.689-0.049,6.236-0.066c-3.012-1.659-6.17-3.027-9.346-4.347
	c-1.677-2.197-2.833-5.274-5.813-5.991c-6.594-2.215-13.645-2.395-20.531-2.426c2.539,2.914,5.959,6.365,4.804,10.615
	c-9.737,6.465-22.111,6.839-33.38,8.353c11.724,6.009,25.107,3.354,37.693,3.339C384.625,43.791,391.432,37.147,399.849,40.062z"/>
<path fill="#3B1951" d="M432.153,53.054c-6.985,2.573-13.693,5.879-20.027,9.818c8.516-0.146,17.047-1.058,25.531,0.099
	c7.424,1.237,15.24-0.636,21.346-5.015c-8.402-3.045-17.324-3.973-26.117-5.194L432.153,53.054z"/>
<path fill="#F2D9FF" d="M415.644,52.306c1.48-4.625,2.442-9.411,4.2-13.938c-6.708,0.391-13.271,3.517-19.995,1.693
	c-8.417-2.915-15.224,3.729-20.335,9.477c8.188,6.203,18.74,6.643,28.444,8.58C410.872,56.881,414.601,55.693,415.644,52.306z"/>
<path fill="#885399" d="M419.844,38.369c-1.758,4.526-2.72,9.313-4.2,13.938c-1.043,3.387-4.771,4.575-7.686,5.813
	c1.367,1.596,2.768,3.175,4.168,4.754c6.334-3.939,13.042-7.245,20.027-9.818C425.917,50.205,423.41,43.708,419.844,38.369z"/>
<g>
	<path fill="none" d="M43.617,111.689c0.003,0,0.005,0,0.008,0c0.417-0.037,0.977-0.912,1.553-2.104
		C44.647,110.611,44.117,111.376,43.617,111.689z"/>
	<path fill="none" d="M274.333,35.063c0.664,0.132,1.802,0.225,3.133,0.258C275.641,35.196,274.333,35.063,274.333,35.063z"/>
	<path fill="none" d="M364.581,88.773c0.126,0.006,0.242,0.006,0.347,0.002C364.818,88.771,364.704,88.771,364.581,88.773z"/>
	<path fill="#545368" d="M47.917,102.42c0-0.003,0.006-0.021,0.006-0.021l0,0C47.922,102.406,47.919,102.413,47.917,102.42z"/>
	<path fill="#3B1951" d="M64.5,105.334c-1.167-2.834-2.722-6.634-2.826-8.244c-0.002-0.031-0.015-0.066-0.025-0.102
		c0.109,3.6-0.211,8.262-0.211,8.262s-6.063,4.25-9.25,1.25s-4.263-4.102-4.263-4.102s1.451,3.477,1.257,5.977
		c-0.194,2.5,5.556,4.125,5.556,4.125c-0.472,0.559-3.218,0.402-5.862,0.104l0,0c0,0,19.958,3.937,27.958-0.75
		C84.834,107.166,65.667,108.168,64.5,105.334z"/>
	<path fill="#3B1951" d="M551.203,35.742c0,0-14.203-2.242-17.703,6.323c-1.045,2.558-2.722,3.916-4.557,4.572l0,0
		c0,0,13.906,1.523,23.564,0.526S568.167,44,568.167,44s-5.333-0.833,0-6.167c0,0-5.5,2.334-9.667-5.667s-6.8-6.918-6.8-6.918
		l-0.008,0.004C553.755,29.873,551.203,35.742,551.203,35.742z"/>
	<path fill="#885399" d="M408,32.286c1.513,0.182,3.029,0,4.512-0.485c1.407,0.506,2.846,0.536,4.278,0.498
		c3.343,0.349,6.945,0.008,9.872-2.783c1.41-1.398,0.139-4.101-0.593-5.537c1.087,0.152,2.388,0.143,3.548,0.552
		c-1.058-1.058-2.083-2.136-3.079-3.233c-4.279,0.117-12.788-0.425-12.788-0.425s-0.499,3.132,1.667,3.921s11.583,1.29,10.833,2.373
		c-0.677,0.977-16.054,4.257-19.068,4.892c0.243,0.633,0.495,1.257,0.734,1.895c0.968,0.269,1.975,0.523,2.981,0.763
		c0.521-0.138,1.05-0.267,1.581-0.393c-0.989-0.116-1.978-0.322-2.948-0.589C408.902,33.633,408.402,32.988,408,32.286z"/>
	<path fill="#885399" d="M415.5,26.75c0,0-6.197-2.352-10.75-3.604c-0.001,0.01-0.001,0.021-0.002,0.031
		c2.833,0.945,5.495,2.787,8.178,3.973C414.401,26.931,415.5,26.75,415.5,26.75z"/>
	<path fill="#787588" d="M406.628,27.905c-0.358-0.012-0.718-0.03-1.077-0.056c0.029,0.073,0.058,0.148,0.086,0.221
		c0.159-0.079,0.353-0.137,0.613-0.146C406.366,27.92,406.498,27.912,406.628,27.905z"/>
	<path fill="#885399" d="M319.219,34.037c-0.371,0.261-0.811,0.447-1.295,0.575h0.001c0,0,9.158,2.445,12.075,0
		c0,0,0.166,0.615,7,0.543c0,0,2.084-4.89-2.333-7.231c-4.417-2.341-11.06,3.675-13.856-3.13c-0.344-0.833-0.779-1.467-1.279-1.942
		c-2.557,1.141-8.063,1.459-8.063,1.459C316.667,26,323.438,31.073,319.219,34.037z"/>
	<path fill="#F2D9FF" d="M25.014,18.68c2.17,2.811,4.959,5.051,7.299,7.711c-0.049,1.979-0.659,3.889-1.09,5.81
		c3.041,0.7,6.15,0.739,9.25,0.69c0.631-0.891,1.261-1.791,1.9-2.67c-0.8-1.131-1.6-2.25-2.4-3.371
		c4.521-0.75,9.101-1.539,13.23-3.64c-2.311-3.64-5.561-6.489-9.029-8.96c0.27-1.359,0.56-2.71,0.869-4.061l0.28-1.26
		c-4.819,0.37-9.511-0.6-14.17-1.64c-1.36,1.69-2.3,3.69-3.8,5.26c-2.061,1.39-4.49,2.08-6.57,3.45
		c-1.25,1.439-0.221,3.43-0.18,5.109c-1.2,1.701-2.68,3.281-3.41,5.271c-0.28,2.841,2.05,5.04,4.23,6.479
		c2.109-0.719,4.209-1.51,6.289-2.34C26.014,26.79,24.903,22.8,25.014,18.68z"/>
	<path fill="#885399" d="M53.203,23.21c-4.13,2.101-8.71,2.89-13.23,3.64c0.801,1.121,1.601,2.24,2.4,3.371
		c-0.64,0.879-1.27,1.779-1.9,2.67c7.23,0.479,15.021,0.01,21.351-3.841c3.05-1.93,0.3-5.659-1.28-7.64
		c-1.41-1.27-2.97-2.34-4.449-3.5c-0.681-2.2-0.92-4.801-2.761-6.4c-2.1-1.619-4.81-2.16-7.38-2.449
		c-0.23,0.289-0.68,0.85-0.91,1.129c-0.31,1.351-0.6,2.701-0.869,4.061C47.643,16.721,50.893,19.57,53.203,23.21z"/>
	<path fill="#3B1951" d="M31.223,32.2c0.431-1.921,1.041-3.83,1.09-5.81c-2.34-2.66-5.129-4.9-7.299-7.711
		c-0.11,4.12,1,8.11,2.699,11.84c-2.08,0.83-4.18,1.621-6.289,2.34l0.039,0.011C24.733,33.12,28.014,32.87,31.223,32.2z"/>
	<path fill="#3B1951" d="M74.223,26.8c-2.1-5.479-8.869-4.96-13.68-5.39c1.58,1.98,4.33,5.71,1.28,7.64
		c-6.33,3.851-14.12,4.32-21.351,3.841c-3.1,0.049-6.209,0.01-9.25-0.69c-3.209,0.67-6.489,0.92-9.76,0.67
		c0.87,0.97,1.95,1.86,3.311,2c5.99,1.05,12.24,1.479,18.199,0.01c2.551,0.69,5.121,1.431,7.791,1.399
		c7.359-0.02,14.72-0.289,22.049-0.989c3.341-0.38,6.841-0.729,9.791-2.5c-0.021-0.39-0.07-1.16-0.1-1.54
		C80.153,29.1,77.043,28.15,74.223,26.8z"/>
	<path fill="#F2D9FF" d="M364.514,88.773c0.025,0.002,0.043-0.002,0.067,0c0.123-0.004,0.237-0.002,0.347,0.002
		c1.018-0.039,1.059-0.441,0.814,0.476c1.74,0.399,3.519,0.423,5.292,0.396c0.36-0.511,0.722-1.024,1.087-1.527
		c-0.457-0.646-0.915-1.287-1.373-1.93c2.586-0.429,5.206-0.879,7.568-2.082c-1.321-2.082-3.182-3.711-5.166-5.125
		c0.154-0.777,0.32-1.551,0.498-2.323l0.16-0.72c-2.758,0.211-5.44-0.344-8.105-0.938c-0.778,0.967-1.314,2.11-2.174,3.009
		c-1.18,0.795-2.569,1.19-3.76,1.975c-0.715,0.824-0.125,1.963-0.103,2.923c-0.687,0.974-1.533,1.878-1.951,3.016
		c-0.159,1.625,1.173,2.884,2.421,3.707c0.245-0.084,0.641-0.194,1.103-0.31C362.223,89.052,363.646,88.721,364.514,88.773z
		 M366.366,78.334c1.217-1.25,1.698-2.264,3.467-2.32c1.769-0.058,1.584,0,1.584,0s-2.946,0.652-2.724,1.236
		s-1.694-0.596-1.61,5.077C367.083,82.327,365.148,79.584,366.366,78.334z"/>
	<path fill="#885399" d="M378.316,84.107c-2.362,1.201-4.982,1.652-7.568,2.082c0.458,0.642,0.916,1.281,1.373,1.929
		c-0.365,0.503-0.727,1.019-1.087,1.526c4.137,0.274,8.593,0.006,12.214-2.196c1.745-1.104,0.172-3.237-0.732-4.37
		c-0.807-0.727-1.697-1.339-2.545-2.003c-0.39-1.259-0.525-2.746-1.578-3.661c-1.201-0.928-2.752-1.234-4.223-1.4
		c-0.132,0.166-0.389,0.485-0.521,0.646c-0.177,0.772-0.342,1.546-0.496,2.323C375.136,80.396,376.995,82.025,378.316,84.107z"/>
	<path fill="#585369" d="M375.46,91.469c0.481,0.07,0.97,0.121,1.462,0.115c1.072-0.003,2.145-0.016,3.217-0.038
		c-0.763-0.091-1.521-0.198-2.272-0.308C377.07,91.343,376.268,91.413,375.46,91.469z"/>
	<path fill="#3B1951" d="M369.813,90.271c2.086,0.252,4.215,0.268,6.34,0.248c4.953,0.174,10.291,0.004,14.629-1.39
		c2.09-0.698,0.205-2.048-0.879-2.765c0.311,0.015,0.634,0.025,0.963,0.035c-0.176-0.077-0.352-0.156-0.523-0.239
		c-1.201-3.136-5.072-2.838-7.826-3.083c0.904,1.133,2.479,3.268,0.732,4.37c-3.621,2.202-8.077,2.472-12.214,2.196
		c-1.773,0.028-3.552,0.006-5.292-0.395c-0.273,1.029-5.721,0.359-5.583,0.383c0.498,0.555,1.116,1.064,1.894,1.145
		c0.941,0.166,1.896,0.3,2.852,0.396c-0.701-0.117-1.29-0.375-1.776-0.66C365.368,90.604,367.616,90.514,369.813,90.271z"/>
	<path fill="#585369" d="M364.904,91.174c0.158,0.025,0.318,0.053,0.49,0.063c3.307,0.307,6.726,0.459,10.064,0.232
		c-1.014-0.148-2.008-0.418-2.995-0.686C369.992,91.393,367.434,91.428,364.904,91.174z"/>
	<path fill="#3B1951" d="M399.277,88.314c-1.305-1.797-5.231-1.812-8.412-1.914c1.467,0.656,3.013,1.207,4.214,2.307
		c0.019,0.217,0.046,0.658,0.058,0.881c-1.688,1.014-3.689,1.213-5.602,1.432c-3.125,0.299-6.26,0.459-9.396,0.526
		c1.008,0.119,2.024,0.207,3.065,0.2c5.042-0.008,10.086-0.104,15.106-0.357c2.289-0.138,4.688-0.265,6.71-0.904
		c-0.016-0.142-0.049-0.42-0.069-0.559C403.341,89.146,401.21,88.805,399.277,88.314z"/>
	<path fill="#3B1951" d="M395.137,89.588c-0.012-0.223-0.039-0.664-0.058-0.881c-1.201-1.1-2.747-1.65-4.214-2.307
		c-0.329-0.01-0.652-0.021-0.963-0.035c1.084,0.717,2.969,2.066,0.879,2.765c-4.338,1.394-9.676,1.563-14.629,1.39
		c-2.125,0.02-4.254,0.004-6.34-0.248c-2.196,0.242-4.444,0.332-6.687,0.242c0.485,0.285,1.075,0.543,1.776,0.66
		c2.529,0.254,5.089,0.219,7.562-0.391c0.987,0.268,1.981,0.537,2.995,0.686c0.807-0.056,1.609-0.126,2.404-0.229
		c0.754,0.107,1.512,0.216,2.273,0.307c3.137-0.066,6.271-0.229,9.396-0.527C391.445,90.801,393.449,90.602,395.137,89.588z"/>
	<path fill="#787588" d="M368.693,77.25c-0.225-0.584,2.724-1.236,2.724-1.236s0.185-0.059-1.584,0
		c-1.769,0.057-2.25,1.07-3.467,2.32c-1.218,1.25,0.717,3.993,0.717,3.993C366.999,76.654,368.917,77.834,368.693,77.25z"/>
	<path fill="#787588" d="M365.742,89.251c0.07-0.317-0.271-0.45-0.814-0.476c-0.104,0.004-0.221,0.004-0.347-0.002
		c-0.963,0.026-2.323,0.291-3.342,0.545c-0.63,0.17-1.08,0.314-1.08,0.314C362.029,89.777,363.907,89.634,365.742,89.251z"/>
	<path fill="#787588" d="M364.928,88.775c0.543,0.024,0.887,0.158,0.814,0.476C365.984,88.334,365.943,88.736,364.928,88.775z"/>
	<path fill="#787588" d="M364.514,88.773c-0.867-0.053-2.291,0.277-3.273,0.545c1.019-0.254,2.379-0.519,3.342-0.545
		C364.557,88.771,364.539,88.775,364.514,88.773z"/>
	<path fill="#787588" d="M365.742,89.251c-1.835,0.383-3.713,0.526-5.583,0.383C360.021,89.611,365.469,90.281,365.742,89.251z"/>
	<path fill="#F2D9FF" d="M509.177,93.561c-0.39-3.875-0.39-7.766,0.261-11.608c-2.866-2.035-5.862-3.875-8.973-5.521
		c-0.797-1.531-1.611-3.062-2.409-4.575c-1.954,0.391-3.923,0.782-5.879,1.188c-1.235,1.889-2.489,3.762-3.679,5.699
		c-2.688,4.314-4.233,9.639-2.783,14.688c2.832,4.834,8.367,7.098,13.449,8.824c-0.734-2.346-1.482-4.656-2.249-6.97
		C501.002,94.717,505.09,94.146,509.177,93.561z"/>
	<path fill="#F2D9FF" d="M537.785,99.389c0.848-0.716,2.555-2.164,3.418-2.881c-4.673,0-9.459,0.993-14.035-0.326
		c-2.816,2.248-5.373,4.787-7.651,7.572c3.11,3.729,7.57,5.746,12.423,5.682c2.198-0.766,4.38-1.61,6.563-2.426
		C538.257,104.453,538.028,101.93,537.785,99.389z"/>
	<path fill="#D300EA" d="M203.093,41.479c-2.947,0.634-5.91,1.286-8.923,1.692c-0.553,0.912-1.661,2.736-2.23,3.648
		c2.068,1.319,3.989,3.484,6.659,3.321c1.124-0.017,3.387-0.065,4.526-0.082C203.077,47.193,203.06,44.344,203.093,41.479z"/>
	<path fill="#D300EA" d="M191.451,37.359l0.456-2.296c-7.359,0.489-15.566-1.318-21.998,3.224c5.162,3.208,11.349,3.354,17.21,3.778
		C188.862,40.794,190.376,39.231,191.451,37.359z"/>
	<path fill="#885399" d="M187.12,42.065c2.345,0.439,4.69,0.895,7.05,1.106c3.013-0.407,5.976-1.058,8.923-1.692
		c-0.033,2.865-0.016,5.714,0.033,8.58c-1.139,0.017-3.403,0.065-4.526,0.082c9.232,2.214,19.767,4.005,28.559-0.603
		c-7.148-3.256-15.24-2.605-22.453-5.52c3.777-0.781,7.783-1.172,11.088-3.354c-6.123-1.026-12.326-1.303-18.497-1.873
		c-1.807-0.651-4.738-5.519-5.845-1.433C190.376,39.231,188.862,40.794,187.12,42.065z"/>
	<path fill="#573075" d="M520.999,94.504c-4.219-4.672-7.849-9.834-11.252-15.109c-0.082,0.637-0.229,1.922-0.31,2.558
		c-0.65,3.844-0.65,7.733-0.262,11.608c-4.087,0.586-8.175,1.156-12.262,1.727c0.767,2.313,1.515,4.624,2.249,6.97
		c0.877,0.293,1.79,0.569,2.703,0.83C508.526,100.969,516.391,100.465,520.999,94.504z"/>
	<path fill="#F2D9FF" d="M128.235,96.488c5.585-1.938,11.854-0.456,17.276-2.947c-0.766-8.729-7.441-15.109-12.489-21.688
		c-9.476,0.31-18.105-3.907-26.377-7.962c-5.21,5.08-10.111,10.648-13.531,17.095c-1.905,5.324-2.263,11.138-1.987,16.756
		c3.55,2.54,7.767,3.956,11.528,6.154c4.673,2.638,9.639,5.73,15.224,5.275c0.359-0.619,1.059-1.873,1.417-2.49
		C121.397,102.691,123.758,98.182,128.235,96.488z"/>
	<path fill="#3B1951" d="M527.168,96.182c-2.067-0.537-4.118-1.14-6.169-1.678c-4.608,5.961-12.473,6.465-19.132,8.582
		c5.354,1.563,10.957,2.507,16.541,1.889c0.277-0.31,0.832-0.928,1.107-1.221C521.795,100.969,524.352,98.43,527.168,96.182z"/>
	<path fill="#885399" d="M160.166,90.352c-1.693-1.011-3.436-1.857-5.129-2.851c-4.934-2.035-3.843-8.856-7.994-11.69
		c-4.104-2.816-9.249-3.208-14.02-3.957c5.047,6.578,11.723,12.96,12.489,21.688c-5.422,2.491-11.691,1.01-17.276,2.946
		c-4.478,1.693-6.838,6.205-8.938,10.193l0.277,1.286c3.224,2.572,8.141,0.732,12.016,1.351c11.267-1.514,23.642-1.887,33.378-8.353
		C166.124,96.716,162.706,93.266,160.166,90.352z"/>
	<path fill="#573075" d="M541.203,96.508c-0.863,0.717-2.57,2.165-3.418,2.881c0.243,2.541,0.472,5.064,0.717,7.621
		c-2.184,0.814-4.364,1.66-6.563,2.426c1.759,1.304,3.517,2.623,5.324,3.858c3.452-2.165,6.888-4.362,10.258-6.659
		C545.339,103.313,543.387,99.829,541.203,96.508z"/>
	<path fill="#3B1951" d="M547.521,106.635c-3.37,2.297-6.806,4.494-10.258,6.659c8.842,0.569,18.269,2.215,26.442-2.196
		C558.788,108.23,553.188,106.93,547.521,106.635z"/>
	<path fill="#E98DFF" d="M327.507,95.178l0.392-1.727c-6.123,1.303-12.181,3.582-16.431,8.402c2.558,1.725,5.128,3.436,7.751,5.096
		C323.582,104.279,327.293,100.615,327.507,95.178z"/>
	<path fill="#3B1951" d="M189.62,103.182c1.563-0.018,4.689-0.05,6.236-0.066c-3.012-1.659-6.171-3.027-9.346-4.348
		c-1.677-2.197-2.833-5.273-5.813-5.99c-6.594-2.215-13.645-2.396-20.532-2.426c2.54,2.914,5.958,6.364,4.803,10.614
		c-9.737,6.466-22.111,6.839-33.378,8.353c11.723,6.01,25.107,3.354,37.693,3.34C174.396,106.909,181.202,100.266,189.62,103.182z"
		/>
	<path fill="#3B1951" d="M221.924,116.173c-6.985,2.573-13.693,5.879-20.027,9.818c8.516-0.146,17.047-1.058,25.531,0.099
		c7.424,1.237,15.24-0.636,21.346-5.015c-8.402-3.046-17.324-3.974-26.117-5.194L221.924,116.173z"/>
	<path fill="#E3E0F0" d="M205.414,115.425c1.481-4.625,2.442-9.411,4.2-13.938c-6.708,0.392-13.27,3.518-19.995,1.693
		c-8.417-2.914-15.224,3.729-20.337,9.478c8.19,6.202,18.742,6.643,28.446,8.579C200.643,120,204.372,118.813,205.414,115.425z"/>
	<path fill="#D300EA" d="M329.915,97.652c-0.603-0.619-1.808-1.855-2.408-2.476c-0.214,5.438-3.925,9.103-8.288,11.771
		c2.59,0.391,5.162,0.88,7.734,1.384c3.043-1.709,6.089-3.451,9.264-4.95C335.043,100.566,332.602,98.874,329.915,97.652z"/>
	<path fill="#885399" d="M209.614,101.486c-1.758,4.527-2.719,9.313-4.2,13.938c-1.042,3.388-4.771,4.575-7.686,5.813
		c1.367,1.596,2.768,3.175,4.168,4.754c6.334-3.939,13.042-7.245,20.027-9.818C215.688,113.323,213.181,106.827,209.614,101.486z"/>
	<path fill="#3B1951" d="M336.217,103.383c-3.175,1.499-6.221,3.241-9.264,4.95c10.387,2.671,21.393,5.829,32.059,2.703
		C351.75,107.846,344.587,101.805,336.217,103.383z"/>
	<path fill="#F2D9FF" d="M394.662,17.955l0.229-1.003c-3.559,0.757-7.078,2.082-9.548,4.882c1.485,1.002,2.979,1.997,4.505,2.961
		C392.382,23.243,394.538,21.114,394.662,17.955z"/>
	<path fill="#885399" d="M396.063,19.393c-0.352-0.36-1.051-1.078-1.399-1.438c-0.124,3.16-2.28,5.289-4.815,6.84
		c1.504,0.227,3,0.511,4.494,0.804c1.77-0.993,3.538-2.005,5.383-2.876C399.041,21.086,397.623,20.103,396.063,19.393z"/>
	<path fill="#3B1951" d="M404.748,23.177c-1.607-0.536-3.271-0.786-5.024-0.455c-1.845,0.871-3.613,1.883-5.383,2.876
		c3.646,0.938,7.424,1.973,11.21,2.25c-0.039-0.099-0.076-0.2-0.115-0.299C404.837,26.187,404.618,24.684,404.748,23.177z"/>
	<path fill="#3B1951" d="M412.926,27.15c-2.683-1.186-5.345-3.028-8.178-3.973c-0.13,1.506,0.089,3.009,0.688,4.373
		c0.039,0.099,0.076,0.2,0.115,0.299c0.359,0.026,0.719,0.044,1.077,0.056C408.269,27.81,410.938,27.445,412.926,27.15z"/>
	<path fill="#F2D9FF" d="M287.167,32.833c-1.417-2.666-0.75-3.083,2.711-7.752c1.225-1.941,2.04-4.231,0.789-7.126
		C287.334,10.242,287,14,287,14s-9,3.667-15,6.873s2.333,14.19,2.333,14.19s1.307,0.133,3.133,0.258
		C281.816,35.427,288.251,34.875,287.167,32.833z"/>
	<path fill="#F2D9FF" d="M419.589,12.949c2.202,2.843,4.494,5.647,6.949,8.349c2.112-0.058,3.199-0.274,1.712-0.798
		c-4.5-1.583-6.75-12.333-21.833-12.333s-6.334,14.405-6.334,14.405c0.371-0.432,2.296-0.078,4.667,0.574
		C405.213,17.979,410.002,12.771,419.589,12.949z"/>
	<path fill="#F2D9FF" d="M406.667,32.167c0,0,0.187-0.039,0.515-0.108c-0.51-1.333-1.02-2.666-1.545-3.989
		C404.173,28.799,406.667,32.167,406.667,32.167z"/>
	<path fill="#F2D9FF" d="M415.417,24.794c-2.166-0.789-1.667-3.921-1.667-3.921s8.509,0.542,12.788,0.425
		c-2.455-2.702-4.747-5.506-6.949-8.349c-9.587-0.178-14.376,5.03-14.839,10.198c4.553,1.252,10.75,3.604,10.75,3.604
		s-1.099,0.181-2.574,0.4c0.016,0.006,0.028,0.013,0.043,0.02c-2.098,0.615-4.219,0.805-6.341,0.735
		c-0.13,0.007-0.262,0.016-0.378,0.02c-0.262,0.009-0.454,0.066-0.613,0.146c0.525,1.324,1.035,2.656,1.545,3.989
		c3.016-0.635,18.393-3.916,19.068-4.892C427,26.084,417.583,25.583,415.417,24.794z"/>
	<path fill="#F2D9FF" d="M412.969,27.169c-0.015-0.006-0.027-0.013-0.043-0.02c-1.988,0.295-4.657,0.66-6.298,0.755
		C408.75,27.974,410.871,27.784,412.969,27.169z"/>
	<path fill="#F2D9FF" d="M528.943,46.637L535,34.757l16.692-9.504c-0.435-0.969-1.057-1.888-1.964-2.681
		c-5.229-4.572-30.771,1.739-30.771,1.739v19.768l0.48,1.735C519.438,45.814,524.633,48.177,528.943,46.637z"/>
	<path fill="#F2D9FF" d="M528.943,46.637c1.835-0.656,3.512-2.014,4.557-4.572c3.5-8.565,17.703-6.323,17.703-6.323
		s2.552-5.869,0.489-10.489L535,34.757L528.943,46.637z"/>
	<path fill="#F2D9FF" d="M309.023,33.347L309.023,33.347c3.058,1.055,6.554,1.882,8.899,1.265l-8.899-10.3
		c0,0,6.92-4.866,10.506-1.459c1.089-0.485,1.646-1.119,1.012-1.942c-2.126-2.756-5.207-5.577-5.207-5.577l-14.298,4.507
		C299.254,26.688,309.023,33.347,309.023,33.347z"/>
	<path fill="#F2D9FF" d="M309.023,24.311l8.899,10.3c0.484-0.128,0.923-0.313,1.295-0.575c4.22-2.963-2.552-8.037-7.751-9.726
		c0,0,5.506-0.318,8.063-1.459C315.943,19.445,309.023,24.311,309.023,24.311z"/>
	<path fill="#F2D9FF" d="M43.617,111.689c0.5-0.313,1.03-1.078,1.561-2.104c0.253-0.523,0.51-1.105,0.76-1.711l-2.924-4.708
		l5.508-9.495c0.056-0.117,0.118-0.218,0.183-0.314l2.174-3.748l0,0c0.745-1.57,1.299-2.978,1.308-2.998
		c-0.511-0.352-1.313-0.473-2.519-0.248c-7.333,1.361-10.333,9.875-10.333,9.875s0,0,2.13,12.199
		c0.448,2.564,1.071,3.498,1.774,3.396C42.97,111.809,42.794,111.766,43.617,111.689z"/>
	<path fill="#F2D9FF" d="M48.521,93.672l-5.508,9.495l2.924,4.708c1.034-2.508,1.94-5.333,1.979-5.455
		c0.002-0.007,0.004-0.014,0.006-0.021C47.923,102.395,47.401,96.04,48.521,93.672z"/>
	<path fill="#F2D9FF" d="M50.878,89.609L50.878,89.609l-2.174,3.748c0.037-0.057,0.069-0.123,0.108-0.17
		C49.495,92.363,50.252,90.93,50.878,89.609z"/>
	<path fill="#885399" d="M52.503,90.523c2.918,1.672,8.775,5.164,9.146,6.465c-0.031-1.02-0.094-1.959-0.211-2.676
		c-0.531-3.25-9.25-7.705-9.25-7.705s-0.001,0.002-0.001,0.004C53.176,87.292,53.046,88.852,52.503,90.523z"/>
	<path fill="#885399" d="M52.503,90.523c-0.881,2.713-2.836,5.715-2.836,5.715s-0.716,2.877-1.743,6.16l0,0
		c0,0,1.076,1.102,4.263,4.102s9.25-1.25,9.25-1.25s0.32-4.662,0.211-8.262C61.278,95.688,55.421,92.195,52.503,90.523z"/>
	<path fill="#885399" d="M48.521,93.672l0.183-0.314C48.64,93.454,48.577,93.555,48.521,93.672z"/>
	<path fill="#885399" d="M52.503,90.523c0.543-1.672,0.673-3.231-0.317-3.912c-0.008,0.021-0.563,1.427-1.308,2.998
		C50.879,89.609,51.527,89.966,52.503,90.523z"/>
	<path fill="#885399" d="M47.924,102.398c1.026-3.283,1.743-6.16,1.743-6.16s1.956-3.002,2.836-5.715
		c-0.976-0.559-1.624-0.914-1.625-0.914c-0.625,1.32-1.383,2.754-2.065,3.578c-0.04,0.047-0.072,0.113-0.108,0.17l-0.183,0.313
		C47.401,96.04,47.923,102.395,47.924,102.398z"/>
	<path fill="#885399" d="M45.178,109.586c-0.577,1.191-1.136,2.066-1.553,2.104c-0.003,0-0.005,0-0.008,0.002
		c-0.129,0.08-0.255,0.123-0.38,0.142c0.175,0.015,0.388,0.021,0.388,0.021s2.573,0.448,5.25,0.752l-2.917-4.696
		C45.7,108.52,45.439,109.082,45.178,109.586z"/>
	<path fill="#885399" d="M54.737,112.5c0,0-5.75-1.625-5.556-4.125c0.194-2.5-1.257-5.977-1.257-5.977s-0.006,0.019-0.006,0.021
		c-0.579,1.85-1.256,3.823-1.959,5.488l2.917,4.695C51.519,112.902,54.265,113.059,54.737,112.5z"/>
	<path fill="#885399" d="M45.178,109.586c0.261-0.504,0.522-1.066,0.78-1.678l-0.021-0.033
		C45.688,108.48,45.432,109.063,45.178,109.586z"/>
	<path fill="#885399" d="M43.237,111.832c0.125-0.02,0.251-0.061,0.38-0.143C42.794,111.766,42.97,111.809,43.237,111.832z"/>
	<path fill="#885399" d="M45.958,107.908c0.703-1.665,1.38-3.639,1.959-5.488c-0.039,0.122-0.945,2.947-1.979,5.455L45.958,107.908z
		"/>
	<path fill="#885399" d="M302.667,30.667L300,20.167l1.036-0.327c0.151-0.585,0.379-1.172,0.714-1.757c0,0-7.999,3.536-11.791-1.69
		c0,0,3.382,4.016-0.08,8.687l-0.001,0.001c-2.038,3.23-5.209,5.493-1.878,7.963c3.938,2.92-5.382,2.629-10.533,2.276
		c-1.331-0.033-2.469-0.126-3.133-0.258c0,0,14.167,2.604,22.667,1.354c8.499-1.25,12.022-3.069,12.024-3.07
		C305.563,32.151,302.667,30.667,302.667,30.667z"/>
	<path fill="#885399" d="M287.167,32.833c1.085,2.042-5.351,2.593-9.7,2.487c5.151,0.353,14.471,0.644,10.533-2.276
		c-3.332-2.471-0.16-4.733,1.878-7.963C286.417,29.75,285.75,30.167,287.167,32.833z"/>
	<path fill="#885399" d="M302.667,30.667c0,0,2.896,1.485,6.356,2.68l0,0c0,0-9.77-6.659-7.987-13.506L300,20.167L302.667,30.667z"
		/>
	<path fill="#3B1951" d="M432.395,27.885c-0.496-2.034-1.56-2.924-2.776-3.354c0.776,0.778,1.565,1.548,2.382,2.3
		c-4.723,5.089-12.544,5.851-19.52,7.493c1.831,0.215,3.678,0.109,5.466-0.583c1.18,0.502,2.369,1.039,3.604,1.015
		c3.402-0.014,6.807-0.209,10.194-0.716c1.545-0.276,3.163-0.53,4.527-1.813c-0.011-0.282-0.032-0.841-0.048-1.117
		C435.137,29.551,433.699,28.864,432.395,27.885z"/>
	<path fill="#3B1951" d="M429.617,24.531c-1.16-0.41-2.461-0.4-3.548-0.552c0.73,1.436,2.003,4.139,0.593,5.537
		c-2.927,2.791-6.529,3.132-9.872,2.783c-1.434,0.038-2.871,0.008-4.278-0.498c-1.481,0.485-2.999,0.667-4.512,0.485
		c0.402,0.702,0.902,1.347,1.53,1.449c0.972,0.267,1.959,0.473,2.948,0.589c6.977-1.642,14.798-2.404,19.521-7.493
		C431.184,26.079,430.395,25.309,429.617,24.531z"/>
</g>
</svg>
