<?xml version="1.0" encoding="UTF-8" ?>
<!DOCTYPE svg PUBLIC "-//W3C//DTD SVG 1.1//EN" "http://www.w3.org/Graphics/SVG/1.1/DTD/svg11.dtd">
<svg width="1250pt" height="1250pt" viewBox="0 0 1250 1250" version="1.1" xmlns="http://www.w3.org/2000/svg">
<g id="#ffffffff">
</g>
<g id="#1ca801ff">
<path fill="#1ca801" opacity="1.00" d=" M 446.06 108.04 C 549.36 72.19 663.51 68.40 768.96 97.29 C 761.37 103.91 752.43 108.80 743.72 113.78 C 734.99 118.54 726.11 123.18 716.78 126.65 C 708.28 127.98 699.63 127.51 691.06 127.92 C 667.97 128.33 644.71 129.15 622.08 134.15 C 609.44 136.87 597.12 140.99 585.31 146.22 C 568.58 152.25 550.93 158.33 538.11 171.22 C 526.54 182.86 521.90 199.26 519.03 214.97 C 515.15 237.46 512.70 260.94 518.61 283.31 C 521.92 295.15 528.09 307.27 539.01 313.71 C 543.10 323.56 550.34 332.44 560.27 336.78 C 574.00 342.88 589.68 341.50 603.95 338.24 C 622.18 332.38 640.20 324.45 654.77 311.78 C 663.68 303.67 672.08 293.52 673.66 281.17 C 674.92 273.25 675.06 265.09 677.67 257.44 C 679.16 253.18 681.64 249.02 685.54 246.57 C 688.94 244.72 692.83 244.04 696.61 243.37 C 705.17 242.07 713.89 241.73 722.53 242.33 C 726.05 249.68 728.03 257.81 727.68 265.99 C 727.81 270.62 727.05 276.02 730.24 279.84 C 741.54 287.40 755.66 288.40 767.71 294.29 C 774.40 297.40 778.15 304.72 777.83 311.95 C 781.26 333.91 779.20 356.39 774.84 378.08 C 772.61 388.05 770.06 398.38 763.60 406.56 C 753.51 419.75 738.34 427.54 723.70 434.61 C 707.16 442.26 690.33 449.41 674.57 458.60 C 662.24 467.85 651.94 480.47 647.45 495.39 C 641.48 515.44 643.56 536.61 642.28 557.21 C 640.16 568.48 634.94 579.64 625.73 586.82 C 612.14 597.79 592.67 597.76 579.82 609.89 C 573.28 615.58 571.72 624.69 571.33 632.91 C 570.82 642.27 571.80 652.41 566.76 660.79 C 562.91 666.82 556.46 671.19 549.42 672.48 C 532.72 676.23 515.41 678.97 498.32 676.58 C 493.34 675.99 488.68 674.16 483.94 672.68 C 478.90 666.43 476.20 658.79 473.35 651.40 C 467.49 635.71 462.75 619.41 454.06 604.97 C 449.48 597.17 443.91 589.75 436.53 584.40 C 427.89 578.09 417.88 574.11 408.16 569.81 C 394.06 563.46 378.45 559.77 362.94 561.14 C 353.43 561.95 344.09 565.22 336.45 570.99 C 332.07 571.26 328.22 573.57 324.37 575.43 C 315.38 580.19 306.39 586.26 301.61 595.55 C 297.33 603.68 296.63 613.06 295.87 622.05 C 294.49 646.92 298.15 672.23 307.62 695.32 C 313.35 708.72 321.41 721.99 334.05 729.86 C 340.86 733.17 348.82 732.13 355.99 730.71 C 367.30 728.37 377.95 723.57 389.32 721.44 C 394.21 720.63 400.01 720.53 403.81 724.25 C 407.67 728.07 408.21 733.88 408.42 739.02 C 408.93 751.42 403.95 763.27 397.67 773.71 C 386.30 792.51 370.59 808.13 358.14 826.16 C 352.28 834.74 346.83 844.37 346.59 855.03 C 346.37 864.53 351.92 873.13 358.87 879.17 C 370.46 889.06 384.12 896.26 398.38 901.49 C 427.21 911.86 457.79 915.59 487.72 921.43 C 504.47 923.38 521.09 926.80 537.99 927.44 C 553.91 927.07 569.85 925.32 585.32 921.47 C 598.69 918.09 611.93 912.78 622.24 903.39 C 638.82 902.16 655.69 907.94 668.42 918.56 C 682.93 930.68 689.87 949.29 693.59 967.32 C 694.51 974.05 698.00 979.99 700.83 986.06 C 707.84 1000.44 718.11 1013.87 732.44 1021.55 C 749.70 1030.97 769.70 1033.37 789.03 1034.66 C 813.93 1035.82 838.98 1037.66 863.27 1043.57 C 875.53 1046.82 888.13 1050.80 897.93 1059.19 C 900.94 1061.60 902.72 1065.16 905.66 1067.65 C 905.48 1070.62 904.93 1073.54 904.42 1076.48 C 901.89 1085.47 898.21 1094.34 892.76 1101.94 C 819.81 1143.17 737.16 1167.00 653.48 1171.18 C 611.28 1173.31 568.80 1170.74 527.22 1163.16 C 522.23 1157.37 517.79 1151.10 514.06 1144.43 C 508.87 1135.02 504.47 1125.18 500.85 1115.07 C 493.95 1098.90 496.88 1080.91 493.31 1064.07 C 491.38 1053.37 484.62 1044.40 477.14 1036.84 C 471.41 1030.92 465.18 1025.48 459.79 1019.23 C 449.95 1007.98 444.57 992.96 444.94 978.02 C 445.08 968.34 447.65 958.83 451.59 950.03 C 436.37 949.54 421.14 948.51 405.91 949.18 C 369.42 949.91 333.02 937.92 303.68 916.32 C 295.56 910.14 288.36 902.70 279.44 897.60 C 270.42 892.33 260.13 889.74 249.86 888.26 C 241.27 886.82 232.16 885.47 224.99 880.11 C 217.91 874.65 212.53 867.18 208.90 859.06 C 200.91 843.54 183.33 836.43 174.50 821.59 C 169.13 813.11 167.28 803.08 164.57 793.57 C 160.48 778.37 153.16 764.05 143.12 751.92 C 132.20 738.52 118.50 727.82 106.32 715.65 C 104.74 714.06 102.85 712.85 101.03 711.57 C 94.54 706.90 88.30 701.83 82.70 696.10 C 69.31 594.20 85.09 488.56 128.51 395.34 C 160.52 326.16 207.26 263.87 264.60 213.65 C 317.53 167.19 379.49 131.05 446.06 108.04 Z" />
<path fill="#1ca801" opacity="1.00" d=" M 1014.78 241.69 C 1029.81 256.20 1043.32 272.30 1056.29 288.68 C 1085.55 326.14 1109.93 367.40 1128.51 411.15 C 1116.97 410.28 1105.73 415.85 1098.52 424.69 C 1090.55 427.32 1088.57 436.59 1086.98 443.81 C 1085.40 451.48 1084.89 459.30 1084.37 467.10 C 1083.97 471.95 1083.51 477.05 1080.83 481.27 C 1055.96 482.45 1029.00 472.25 1015.50 450.40 C 1009.24 440.46 1005.75 428.92 998.50 419.56 C 993.55 413.35 989.27 406.64 984.88 400.03 C 980.62 392.89 975.80 384.66 978.11 376.03 C 980.86 366.58 988.71 360.05 994.62 352.61 C 1000.70 341.40 1005.49 329.50 1009.45 317.39 C 1015.22 299.58 1018.57 280.71 1016.75 261.97 C 1016.64 255.16 1014.77 248.50 1014.78 241.69 Z" />
<path fill="#1ca801" opacity="1.00" d=" M 1160.06 540.62 C 1161.97 540.96 1163.83 541.54 1165.58 542.43 C 1180.02 635.70 1169.63 732.73 1135.78 820.85 C 1125.65 847.27 1113.43 872.90 1099.33 897.43 C 1097.62 897.86 1095.87 898.12 1094.15 898.33 C 1091.63 894.38 1089.04 890.47 1086.61 886.47 C 1077.80 871.63 1066.90 858.20 1056.36 844.59 C 1045.01 829.99 1034.00 814.67 1027.79 797.08 C 1022.05 781.16 1020.98 763.79 1023.70 747.15 C 1026.73 725.38 1035.11 704.51 1047.25 686.25 C 1065.17 659.35 1089.91 637.95 1115.31 618.35 C 1124.09 611.52 1133.43 605.27 1141.04 597.08 C 1146.84 590.72 1150.02 582.52 1152.48 574.39 C 1155.71 563.31 1158.91 552.14 1160.06 540.62 Z" />
</g>
<g id="#106001ff">
<path fill="#106001" opacity="1.00" d=" M 768.96 97.29 C 772.40 98.18 775.81 99.19 779.23 100.16 C 780.39 105.64 777.87 111.13 774.31 115.18 C 763.55 126.79 748.75 133.45 734.40 139.49 C 717.97 146.39 700.52 150.47 682.90 152.86 C 656.17 156.69 629.03 158.98 603.08 166.87 C 589.15 171.12 575.46 176.48 562.86 183.83 C 554.29 188.94 546.53 195.95 542.12 205.03 C 538.95 211.35 537.07 218.21 535.71 225.12 C 533.14 238.96 532.29 253.08 532.05 267.14 C 532.04 282.86 533.05 298.98 539.01 313.71 C 528.09 307.27 521.92 295.15 518.61 283.31 C 512.70 260.94 515.15 237.46 519.03 214.97 C 521.90 199.26 526.54 182.86 538.11 171.22 C 550.93 158.33 568.58 152.25 585.31 146.22 C 597.12 140.99 609.44 136.87 622.08 134.15 C 644.71 129.15 667.97 128.33 691.06 127.92 C 699.63 127.51 708.28 127.98 716.78 126.65 C 726.11 123.18 734.99 118.54 743.72 113.78 C 752.43 108.80 761.37 103.91 768.96 97.29 Z" />
<path fill="#106001" opacity="1.00" d=" M 998.14 246.99 C 997.22 238.66 1010.54 234.07 1014.78 241.34 L 1014.78 241.69 C 1014.77 248.50 1016.64 255.16 1016.75 261.97 C 1018.57 280.71 1015.22 299.58 1009.45 317.39 C 1005.49 329.50 1000.70 341.40 994.62 352.61 C 988.71 360.05 980.86 366.58 978.11 376.03 C 975.80 384.66 980.62 392.89 984.88 400.03 C 989.27 406.64 993.55 413.35 998.50 419.56 C 1005.75 428.92 1009.24 440.46 1015.50 450.40 C 1029.00 472.25 1055.96 482.45 1080.83 481.27 C 1076.85 486.93 1069.55 488.43 1063.12 489.25 C 1040.11 491.96 1014.54 486.12 998.55 468.41 C 988.53 457.84 985.68 443.00 977.97 430.99 C 972.30 422.74 967.99 413.67 962.98 405.03 C 957.54 394.86 951.86 383.36 954.69 371.51 C 957.74 359.51 965.44 349.46 972.16 339.30 C 978.55 329.95 984.87 320.50 989.95 310.37 C 992.36 305.51 994.56 300.55 996.33 295.42 C 1002.45 279.91 999.13 263.08 998.14 246.99 Z" />
<path fill="#106001" opacity="1.00" d=" M 722.53 242.33 C 728.27 242.52 733.95 244.89 737.88 249.11 C 741.50 253.16 742.74 258.66 745.86 263.04 C 753.16 273.38 764.23 280.11 775.30 285.75 C 783.06 289.62 790.10 295.67 793.10 304.03 C 799.72 321.69 797.33 341.12 793.58 359.15 C 789.17 378.78 782.60 398.07 772.78 415.69 C 765.57 428.74 754.03 438.82 741.34 446.38 C 723.34 457.30 703.08 464.91 687.41 479.38 C 677.53 488.24 670.18 500.03 667.44 513.09 C 663.36 532.16 665.38 552.09 659.96 570.95 C 657.71 579.79 653.32 588.36 646.18 594.22 C 638.39 600.77 628.45 603.68 619.02 606.99 C 607.98 610.60 596.73 616.37 590.84 626.87 C 582.72 641.16 588.25 658.71 581.53 673.43 C 578.51 680.09 572.58 685.01 566.00 687.95 C 551.04 694.64 533.94 696.60 517.89 693.19 C 504.74 690.40 492.12 683.53 483.94 672.68 C 488.68 674.16 493.34 675.99 498.32 676.58 C 515.41 678.97 532.72 676.23 549.42 672.48 C 556.46 671.19 562.91 666.82 566.76 660.79 C 571.80 652.41 570.82 642.27 571.33 632.91 C 571.72 624.69 573.28 615.58 579.82 609.89 C 592.67 597.76 612.14 597.79 625.73 586.82 C 634.94 579.64 640.16 568.48 642.28 557.21 C 643.56 536.61 641.48 515.44 647.45 495.39 C 651.94 480.47 662.24 467.85 674.57 458.60 C 690.33 449.41 707.16 442.26 723.70 434.61 C 738.34 427.54 753.51 419.75 763.60 406.56 C 770.06 398.38 772.61 388.05 774.84 378.08 C 779.20 356.39 781.26 333.91 777.83 311.95 C 778.15 304.72 774.40 297.40 767.71 294.29 C 755.66 288.40 741.54 287.40 730.24 279.84 C 727.05 276.02 727.81 270.62 727.68 265.99 C 728.03 257.81 726.05 249.68 722.53 242.33 Z" />
<path fill="#106001" opacity="1.00" d=" M 1098.52 424.69 C 1105.73 415.85 1116.97 410.28 1128.51 411.15 C 1129.36 413.35 1130.53 415.45 1131.04 417.78 C 1127.62 421.81 1123.33 426.28 1117.78 426.66 C 1111.32 426.31 1105.03 423.90 1098.52 424.69 Z" />
<path fill="#106001" opacity="1.00" d=" M 1139.82 548.71 C 1140.95 544.33 1145.45 542.23 1149.44 541.13 C 1152.89 540.21 1156.52 540.21 1160.06 540.62 C 1158.91 552.14 1155.71 563.31 1152.48 574.39 C 1150.02 582.52 1146.84 590.72 1141.04 597.08 C 1133.43 605.27 1124.09 611.52 1115.31 618.35 C 1089.91 637.95 1065.17 659.35 1047.25 686.25 C 1035.11 704.51 1026.73 725.38 1023.70 747.15 C 1020.98 763.79 1022.05 781.16 1027.79 797.08 C 1034.00 814.67 1045.01 829.99 1056.36 844.59 C 1066.90 858.20 1077.80 871.63 1086.61 886.47 C 1089.04 890.47 1091.63 894.38 1094.15 898.33 C 1089.89 898.61 1085.51 898.00 1081.69 896.06 C 1069.58 889.61 1063.57 876.63 1056.26 865.72 C 1051.98 859.17 1047.39 852.84 1042.70 846.58 C 1035.30 836.75 1027.48 827.24 1020.41 817.17 C 1019.17 815.51 1018.00 813.80 1016.94 812.03 C 1009.43 800.35 1003.37 787.59 1000.70 773.89 C 996.47 751.02 1001.11 727.24 1009.94 706.00 C 1024.06 672.93 1050.64 647.33 1078.29 625.29 C 1090.82 614.94 1104.71 606.23 1116.32 594.80 C 1129.25 582.61 1134.67 565.18 1139.82 548.71 Z" />
<path fill="#106001" opacity="1.00" d=" M 324.37 575.43 C 328.22 573.57 332.07 571.26 336.45 570.99 C 331.35 575.11 327.05 580.22 323.96 586.01 C 317.10 598.82 315.20 613.63 314.82 627.97 C 314.71 648.60 318.73 669.76 329.25 687.71 C 335.74 698.67 345.85 708.64 358.85 710.85 C 375.79 713.62 392.17 706.40 409.00 706.12 C 415.70 705.91 423.05 708.40 426.50 714.53 C 430.85 722.31 431.71 731.75 430.30 740.45 C 427.79 754.04 419.87 765.82 411.51 776.52 C 399.98 791.25 386.36 804.24 375.35 819.38 C 370.05 826.92 364.98 835.43 364.93 844.93 C 364.91 852.77 369.51 859.80 375.29 864.76 C 384.01 872.20 394.07 877.98 404.60 882.47 C 433.65 894.59 465.21 898.10 495.86 904.11 C 511.57 906.00 527.20 909.12 543.06 909.81 C 557.19 909.31 571.36 907.83 585.09 904.37 C 597.71 901.07 610.54 896.30 620.05 887.04 C 632.24 886.36 644.37 888.79 655.94 892.46 C 670.04 896.97 683.24 904.71 693.41 915.55 C 702.64 925.26 709.39 937.07 714.49 949.41 C 720.68 963.80 727.75 978.34 739.17 989.37 C 751.94 1001.81 769.94 1006.61 787.16 1008.72 C 812.25 1011.43 837.67 1013.63 861.87 1021.25 C 874.22 1025.25 886.69 1030.65 895.82 1040.19 C 902.83 1047.39 906.55 1057.61 905.66 1067.65 C 902.72 1065.16 900.94 1061.60 897.93 1059.19 C 888.13 1050.80 875.53 1046.82 863.27 1043.57 C 838.98 1037.66 813.93 1035.82 789.03 1034.66 C 769.70 1033.37 749.70 1030.97 732.44 1021.55 C 718.11 1013.87 707.84 1000.44 700.83 986.06 C 698.00 979.99 694.51 974.05 693.59 967.32 C 689.87 949.29 682.93 930.68 668.42 918.56 C 655.69 907.94 638.82 902.16 622.24 903.39 C 611.93 912.78 598.69 918.09 585.32 921.47 C 569.85 925.32 553.91 927.07 537.99 927.44 C 521.09 926.80 504.47 923.38 487.72 921.43 C 457.79 915.59 427.21 911.86 398.38 901.49 C 384.12 896.26 370.46 889.06 358.87 879.17 C 351.92 873.13 346.37 864.53 346.59 855.03 C 346.83 844.37 352.28 834.74 358.14 826.16 C 370.59 808.13 386.30 792.51 397.67 773.71 C 403.95 763.27 408.93 751.42 408.42 739.02 C 408.21 733.88 407.67 728.07 403.81 724.25 C 400.01 720.53 394.21 720.63 389.32 721.44 C 377.95 723.57 367.30 728.37 355.99 730.71 C 348.82 732.13 340.86 733.17 334.05 729.86 C 321.41 721.99 313.35 708.72 307.62 695.32 C 298.15 672.23 294.49 646.92 295.87 622.05 C 296.63 613.06 297.33 603.68 301.61 595.55 C 306.39 586.26 315.38 580.19 324.37 575.43 Z" />
</g>
<g id="#2191bfff">
<path fill="#2191bf" opacity="1.00" d=" M 734.40 139.49 C 748.75 133.45 763.55 126.79 774.31 115.18 C 858.34 139.65 935.85 185.57 998.14 246.99 C 999.13 263.08 1002.45 279.91 996.33 295.42 C 984.20 282.03 972.08 268.28 956.98 258.14 C 949.32 254.19 940.68 250.87 931.92 252.21 C 923.83 253.06 916.28 257.26 908.01 256.67 C 898.42 256.23 889.79 251.37 882.29 245.74 C 877.01 241.80 871.28 238.50 865.35 235.64 C 856.71 231.92 850.81 223.11 841.01 221.89 C 825.53 220.06 810.46 226.09 795.04 226.18 C 789.21 226.30 783.19 224.21 779.26 219.79 C 772.92 212.88 769.37 203.92 762.75 197.22 C 756.72 191.23 749.46 186.29 741.34 183.67 C 733.73 181.66 725.83 181.26 718.05 180.28 C 709.77 179.63 700.99 178.78 693.14 182.14 C 678.55 187.85 667.11 198.96 653.70 206.72 C 646.01 211.21 638.07 215.28 629.91 218.86 C 622.49 222.18 614.08 224.04 606.02 222.19 C 595.50 219.90 586.11 213.99 578.13 206.93 C 574.63 204.14 570.72 201.08 566.00 201.16 C 557.87 201.03 550.10 203.90 542.12 205.03 C 546.53 195.95 554.29 188.94 562.86 183.83 C 575.46 176.48 589.15 171.12 603.08 166.87 C 629.03 158.98 656.17 156.69 682.90 152.86 C 700.52 150.47 717.97 146.39 734.40 139.49 Z" />
<path fill="#2191bf" opacity="1.00" d=" M 699.32 193.44 C 715.10 190.81 730.50 197.39 743.85 205.18 C 748.48 208.32 753.68 211.10 756.91 215.84 C 746.68 215.11 737.09 211.08 726.95 209.87 C 721.44 208.97 715.55 210.51 711.42 214.32 C 706.84 219.22 704.09 225.57 699.34 230.33 C 695.20 234.09 689.21 234.51 683.92 233.76 C 677.59 233.03 670.14 232.38 665.13 237.16 C 659.12 242.26 657.12 250.12 654.17 257.09 C 651.90 262.99 647.76 268.03 642.89 271.99 C 637.78 276.62 632.62 281.94 625.65 283.53 C 620.36 284.72 615.28 282.06 610.02 282.06 C 605.23 282.04 600.28 282.15 595.83 280.12 C 588.73 277.12 581.97 273.37 574.98 270.12 C 567.81 266.82 562.13 260.40 554.08 259.06 C 547.16 257.72 540.46 260.59 534.28 263.34 C 532.67 263.89 532.57 265.78 532.05 267.14 C 532.29 253.08 533.14 238.96 535.71 225.12 C 540.00 221.91 543.53 217.57 548.66 215.61 C 553.66 213.64 559.24 215.65 563.44 218.56 C 571.87 224.34 578.56 232.50 587.72 237.25 C 597.64 242.13 609.08 242.74 619.87 241.18 C 627.96 239.95 636.40 239.50 643.86 235.80 C 651.25 232.32 657.08 226.46 663.38 221.40 C 667.26 218.30 670.80 214.80 673.90 210.90 C 680.66 203.12 688.63 195.01 699.32 193.44 Z" />
<path fill="#2191bf" opacity="1.00" d=" M 754.94 233.76 C 758.80 234.86 761.34 238.20 764.27 240.73 C 768.56 244.79 774.07 247.47 779.93 248.30 C 785.76 249.26 791.34 252.52 797.39 251.49 C 806.23 250.19 814.92 247.08 823.97 247.87 C 832.48 248.32 839.69 253.28 847.05 257.02 C 858.82 263.93 870.36 271.84 883.73 275.35 C 890.98 277.33 898.55 276.59 905.97 276.72 C 916.65 276.80 927.32 277.22 937.98 277.95 C 947.04 278.50 956.84 278.06 964.82 283.14 C 975.44 289.78 983.23 299.99 989.95 310.37 C 984.87 320.50 978.55 329.95 972.16 339.30 C 970.94 335.85 969.99 332.21 967.76 329.24 C 963.71 322.94 956.64 319.34 949.61 317.41 C 938.14 313.86 925.95 313.39 914.08 314.66 C 902.89 315.39 891.15 317.58 880.31 313.64 C 871.24 309.64 862.44 304.61 855.37 297.58 C 849.85 291.13 844.19 284.57 836.83 280.15 C 829.32 274.86 820.63 271.70 811.88 269.10 C 800.95 265.48 788.95 266.40 778.29 261.80 C 769.57 257.97 763.75 250.01 758.79 242.21 C 757.24 239.54 755.29 236.91 754.94 233.76 Z" />
<path fill="#2191bf" opacity="1.00" d=" M 1086.98 443.81 C 1088.57 436.59 1090.55 427.32 1098.52 424.69 C 1105.03 423.90 1111.32 426.31 1117.78 426.66 C 1132.62 463.44 1143.35 501.93 1149.44 541.13 C 1145.45 542.23 1140.95 544.33 1139.82 548.71 C 1134.67 565.18 1129.25 582.61 1116.32 594.80 C 1115.85 593.31 1115.32 591.85 1114.43 590.58 C 1110.06 583.92 1105.30 577.50 1101.53 570.46 C 1095.82 561.06 1092.47 550.03 1093.25 538.96 C 1094.03 524.27 1099.85 510.58 1104.75 496.90 C 1108.23 486.40 1110.27 474.21 1104.91 463.98 C 1100.37 456.10 1093.53 449.96 1086.98 443.81 Z" />
<path fill="#2191bf" opacity="1.00" d=" M 879.62 698.49 C 889.83 696.06 900.19 699.16 909.92 702.14 C 923.99 706.63 937.70 712.72 949.85 721.18 C 958.02 726.95 965.28 734.41 969.44 743.63 C 974.22 752.38 975.42 763.03 982.64 770.40 C 986.64 775.56 993.80 776.38 999.85 775.67 C 1000.06 775.22 1000.49 774.34 1000.70 773.89 C 1003.37 787.59 1009.43 800.35 1016.94 812.03 C 1005.35 818.04 992.74 822.56 979.65 823.56 C 969.98 824.49 960.07 822.11 951.66 817.32 C 944.39 812.45 938.08 806.10 933.41 798.68 C 927.12 788.63 921.18 778.34 914.41 768.60 C 909.40 761.96 903.15 755.66 894.98 753.20 C 890.72 752.39 886.30 752.53 882.04 753.25 C 871.17 756.24 862.16 763.57 854.61 771.69 C 847.29 778.40 842.29 787.18 834.89 793.82 C 827.57 801.20 817.69 806.62 807.07 806.39 C 795.30 807.00 784.36 801.57 774.82 795.22 C 762.37 786.56 751.23 775.40 736.66 770.28 C 723.65 766.29 709.96 769.65 696.90 771.64 C 697.40 770.61 697.91 769.55 698.88 768.87 C 704.10 764.33 709.53 760.01 715.45 756.40 C 724.25 750.56 735.32 746.11 745.93 749.15 C 754.89 751.22 762.04 757.34 768.78 763.24 C 773.91 768.17 778.75 773.70 785.32 776.76 C 791.27 779.87 798.67 779.59 804.66 776.74 C 811.88 772.44 817.37 765.87 822.07 759.02 C 832.67 744.76 839.92 728.17 851.90 714.91 C 859.45 707.14 869.00 701.01 879.62 698.49 Z" />
<path fill="#2191bf" opacity="1.00" d=" M 863.88 785.86 C 869.27 780.94 877.37 780.98 883.95 783.14 C 893.82 786.57 901.24 794.30 908.18 801.77 C 917.69 812.64 926.10 824.50 936.78 834.30 C 943.50 840.53 951.05 846.11 959.67 849.39 C 969.19 852.98 980.18 851.93 988.99 846.90 C 998.06 842.10 1005.25 834.58 1011.99 827.00 C 1014.66 823.60 1018.12 820.87 1020.41 817.17 C 1027.48 827.24 1035.30 836.75 1042.70 846.58 C 1026.93 861.98 1017.25 882.29 1002.59 898.63 C 994.74 906.87 984.53 912.87 973.42 915.43 C 966.70 917.29 959.25 918.28 952.69 915.35 C 942.05 911.13 934.45 902.23 926.68 894.24 C 921.19 888.77 916.35 882.69 910.74 877.35 C 903.77 870.34 895.73 863.76 885.99 861.22 C 877.99 859.05 869.58 862.28 863.35 867.32 C 857.02 872.64 851.91 879.23 845.69 884.67 C 840.71 889.14 833.41 890.70 826.97 889.00 C 815.93 886.29 805.79 880.81 796.38 874.57 C 783.61 865.64 771.66 855.39 757.67 848.32 C 741.43 839.56 722.08 836.69 703.99 840.32 C 691.46 842.64 679.96 848.50 669.31 855.32 C 661.89 860.16 654.10 864.46 645.90 867.84 C 635.49 871.33 624.26 868.94 614.09 865.80 C 600.17 860.23 586.13 854.99 572.07 849.80 C 558.15 841.61 545.64 831.14 534.00 820.00 C 539.91 819.74 545.56 822.07 551.11 823.85 C 565.01 828.83 579.05 833.39 593.15 837.78 C 604.72 841.15 617.72 841.69 629.00 837.04 C 639.47 832.47 644.35 821.63 651.32 813.35 C 657.53 806.40 664.77 799.96 673.63 796.64 C 684.25 792.51 695.94 793.53 707.06 794.32 C 719.80 795.40 732.71 797.13 744.40 802.64 C 757.97 808.97 770.04 818.03 783.60 824.39 C 795.25 830.32 808.91 835.18 821.93 830.93 C 831.62 828.16 838.91 820.65 844.72 812.76 C 851.22 803.89 855.41 793.17 863.88 785.86 Z" />
<path fill="#2191bf" opacity="1.00" d=" M 136.02 832.62 C 142.44 836.27 148.78 840.07 155.30 843.57 C 162.31 847.25 168.09 852.83 173.14 858.85 C 179.56 867.58 182.52 878.34 189.01 887.03 C 198.09 899.26 212.56 905.31 223.88 915.04 C 234.19 922.83 240.61 934.68 244.09 946.93 C 247.23 956.88 248.47 967.45 253.03 976.94 C 255.62 982.93 259.83 988.07 264.41 992.65 C 277.78 1004.15 295.20 1011.27 312.94 1011.23 C 323.32 1011.44 333.61 1008.85 344.00 1009.90 C 354.02 1010.71 362.84 1016.75 372.99 1016.88 C 381.73 1017.52 390.01 1014.15 397.88 1010.80 C 406.83 1007.19 416.61 1002.67 426.41 1005.53 C 433.09 1007.17 436.83 1013.58 439.75 1019.27 C 444.83 1030.43 447.38 1043.00 455.32 1052.68 C 459.55 1056.74 464.66 1059.99 470.17 1062.04 C 477.66 1064.19 485.56 1064.55 493.31 1064.07 C 496.88 1080.91 493.95 1098.90 500.85 1115.07 C 504.47 1125.18 508.87 1135.02 514.06 1144.43 C 429.41 1126.65 349.47 1087.34 283.34 1031.63 C 219.55 978.06 168.52 909.33 136.02 832.62 Z" />
<path fill="#2191bf" opacity="1.00" d=" M 697.09 868.09 C 707.27 864.67 718.29 862.82 728.96 864.93 C 745.01 867.48 758.74 877.85 768.87 890.14 C 774.14 895.50 779.23 901.09 785.18 905.75 C 795.15 914.25 807.28 920.21 820.07 923.05 C 830.46 925.72 841.33 927.00 852.04 925.82 C 856.18 925.39 860.05 923.81 863.85 922.19 C 863.26 928.52 858.10 932.94 853.14 936.21 C 843.85 941.81 833.71 946.12 823.07 948.31 C 807.93 951.14 792.34 951.96 777.04 950.09 C 770.12 949.26 763.28 947.34 757.29 943.71 C 746.72 937.65 738.59 928.37 730.31 919.63 C 722.51 911.15 716.76 900.58 707.00 894.11 C 700.40 889.91 692.31 890.26 685.02 888.19 C 675.97 885.27 667.22 881.50 658.19 878.53 C 659.48 877.62 661.13 877.74 662.64 877.52 C 674.62 876.53 685.73 871.62 697.09 868.09 Z" />
<path fill="#2191bf" opacity="1.00" d=" M 1056.26 865.72 C 1063.57 876.63 1069.58 889.61 1081.69 896.06 C 1043.17 961.33 990.17 1017.94 928.00 1061.23 C 920.25 1066.47 912.60 1071.96 904.42 1076.48 C 904.93 1073.54 905.48 1070.62 905.66 1067.65 C 906.55 1057.61 902.83 1047.39 895.82 1040.19 C 886.69 1030.65 874.22 1025.25 861.87 1021.25 C 837.67 1013.63 812.25 1011.43 787.16 1008.72 C 769.94 1006.61 751.94 1001.81 739.17 989.37 C 740.70 988.90 742.26 988.48 743.68 987.72 C 751.62 983.43 759.28 978.01 768.34 976.40 C 782.31 973.42 796.62 975.92 810.61 977.45 C 824.63 978.95 839.20 981.19 852.98 977.05 C 859.22 975.51 864.14 970.86 867.88 965.84 C 873.77 956.97 875.78 946.25 880.90 936.98 C 883.92 931.62 888.47 926.40 894.96 925.66 C 907.79 923.55 920.63 927.70 932.38 932.55 C 940.72 935.72 948.93 940.04 958.04 940.31 C 974.02 941.20 989.09 934.30 1002.82 926.86 C 1011.20 922.15 1019.59 917.24 1026.76 910.77 C 1040.24 898.50 1048.07 881.67 1056.26 865.72 Z" />
<path fill="#2191bf" opacity="1.00" d=" M 244.14 920.23 C 252.15 919.72 259.83 922.87 267.01 926.08 C 276.26 930.86 285.17 937.14 290.93 945.99 C 295.08 952.96 297.27 961.84 304.61 966.32 C 311.80 970.53 320.22 967.59 327.98 968.15 C 338.32 968.63 346.70 976.24 357.00 976.84 C 363.02 977.07 368.47 974.11 374.05 972.32 C 379.81 970.36 385.99 970.86 391.98 970.84 C 400.08 971.03 408.59 972.09 415.61 976.46 C 417.81 978.28 420.59 980.12 421.18 983.12 C 416.86 982.28 412.46 980.93 408.07 982.23 C 396.65 985.30 388.51 995.56 376.66 997.60 C 360.09 999.81 344.53 991.23 328.02 991.82 C 312.47 991.93 295.06 992.10 282.43 981.56 C 274.04 975.30 271.32 964.72 269.12 955.04 C 267.02 943.77 259.99 933.98 251.28 926.77 C 248.97 924.51 246.02 922.90 244.14 920.23 Z" />
</g>
<g id="#26a9e1ff">
<path fill="#26a9e1" opacity="1.00" d=" M 693.14 182.14 C 700.99 178.78 709.77 179.63 718.05 180.28 C 725.83 181.26 733.73 181.66 741.34 183.67 C 749.46 186.29 756.72 191.23 762.75 197.22 C 769.37 203.92 772.92 212.88 779.26 219.79 C 783.19 224.21 789.21 226.30 795.04 226.18 C 810.46 226.09 825.53 220.06 841.01 221.89 C 850.81 223.11 856.71 231.92 865.35 235.64 C 871.28 238.50 877.01 241.80 882.29 245.74 C 889.79 251.37 898.42 256.23 908.01 256.67 C 916.28 257.26 923.83 253.06 931.92 252.21 C 940.68 250.87 949.32 254.19 956.98 258.14 C 972.08 268.28 984.20 282.03 996.33 295.42 C 994.56 300.55 992.36 305.51 989.95 310.37 C 983.23 299.99 975.44 289.78 964.82 283.14 C 956.84 278.06 947.04 278.50 937.98 277.95 C 927.32 277.22 916.65 276.80 905.97 276.72 C 898.55 276.59 890.98 277.33 883.73 275.35 C 870.36 271.84 858.82 263.93 847.05 257.02 C 839.69 253.28 832.48 248.32 823.97 247.87 C 814.92 247.08 806.23 250.19 797.39 251.49 C 791.34 252.52 785.76 249.26 779.93 248.30 C 774.07 247.47 768.56 244.79 764.27 240.73 C 761.34 238.20 758.80 234.86 754.94 233.76 C 755.29 236.91 757.24 239.54 758.79 242.21 C 763.75 250.01 769.57 257.97 778.29 261.80 C 788.95 266.40 800.95 265.48 811.88 269.10 C 820.63 271.70 829.32 274.86 836.83 280.15 C 844.19 284.57 849.85 291.13 855.37 297.58 C 862.44 304.61 871.24 309.64 880.31 313.64 C 891.15 317.58 902.89 315.39 914.08 314.66 C 925.95 313.39 938.14 313.86 949.61 317.41 C 956.64 319.34 963.71 322.94 967.76 329.24 C 969.99 332.21 970.94 335.85 972.16 339.30 C 965.44 349.46 957.74 359.51 954.69 371.51 C 951.86 383.36 957.54 394.86 962.98 405.03 C 967.99 413.67 972.30 422.74 977.97 430.99 C 985.68 443.00 988.53 457.84 998.55 468.41 C 1014.54 486.12 1040.11 491.96 1063.12 489.25 C 1069.55 488.43 1076.85 486.93 1080.83 481.27 C 1083.51 477.05 1083.97 471.95 1084.37 467.10 C 1084.89 459.30 1085.40 451.48 1086.98 443.81 C 1093.53 449.96 1100.37 456.10 1104.91 463.98 C 1110.27 474.21 1108.23 486.40 1104.75 496.90 C 1099.85 510.58 1094.03 524.27 1093.25 538.96 C 1092.47 550.03 1095.82 561.06 1101.53 570.46 C 1105.30 577.50 1110.06 583.92 1114.43 590.58 C 1115.32 591.85 1115.85 593.31 1116.32 594.80 C 1104.71 606.23 1090.82 614.94 1078.29 625.29 C 1050.64 647.33 1024.06 672.93 1009.94 706.00 C 1001.11 727.24 996.47 751.02 1000.70 773.89 C 1000.49 774.34 1000.06 775.22 999.85 775.67 C 993.80 776.38 986.64 775.56 982.64 770.40 C 975.42 763.03 974.22 752.38 969.44 743.63 C 965.28 734.41 958.02 726.95 949.85 721.18 C 937.70 712.72 923.99 706.63 909.92 702.14 C 900.19 699.16 889.83 696.06 879.62 698.49 C 869.00 701.01 859.45 707.14 851.90 714.91 C 839.92 728.17 832.67 744.76 822.07 759.02 C 817.37 765.87 811.88 772.44 804.66 776.74 C 798.67 779.59 791.27 779.87 785.32 776.76 C 778.75 773.70 773.91 768.17 768.78 763.24 C 762.04 757.34 754.89 751.22 745.93 749.15 C 735.32 746.11 724.25 750.56 715.45 756.40 C 709.53 760.01 704.10 764.33 698.88 768.87 C 697.91 769.55 697.40 770.61 696.90 771.64 C 709.96 769.65 723.65 766.29 736.66 770.28 C 751.23 775.40 762.37 786.56 774.82 795.22 C 784.36 801.57 795.30 807.00 807.07 806.39 C 817.69 806.62 827.57 801.20 834.89 793.82 C 842.29 787.18 847.29 778.40 854.61 771.69 C 862.16 763.57 871.17 756.24 882.04 753.25 C 886.30 752.53 890.72 752.39 894.98 753.20 C 903.15 755.66 909.40 761.96 914.41 768.60 C 921.18 778.34 927.12 788.63 933.41 798.68 C 938.08 806.10 944.39 812.45 951.66 817.32 C 960.07 822.11 969.98 824.49 979.65 823.56 C 992.74 822.56 1005.35 818.04 1016.94 812.03 C 1018.00 813.80 1019.17 815.51 1020.41 817.17 C 1018.12 820.87 1014.66 823.60 1011.99 827.00 C 1005.25 834.58 998.06 842.10 988.99 846.90 C 980.18 851.93 969.19 852.98 959.67 849.39 C 951.05 846.11 943.50 840.53 936.78 834.30 C 926.10 824.50 917.69 812.64 908.18 801.77 C 901.24 794.30 893.82 786.57 883.95 783.14 C 877.37 780.98 869.27 780.94 863.88 785.86 C 855.41 793.17 851.22 803.89 844.72 812.76 C 838.91 820.65 831.62 828.16 821.93 830.93 C 808.91 835.18 795.25 830.32 783.60 824.39 C 770.04 818.03 757.97 808.97 744.40 802.64 C 732.71 797.13 719.80 795.40 707.06 794.32 C 695.94 793.53 684.25 792.51 673.63 796.64 C 664.77 799.96 657.53 806.40 651.32 813.35 C 644.35 821.63 639.47 832.47 629.00 837.04 C 617.72 841.69 604.72 841.15 593.15 837.78 C 579.05 833.39 565.01 828.83 551.11 823.85 C 545.56 822.07 539.91 819.74 534.00 820.00 C 545.64 831.14 558.15 841.61 572.07 849.80 C 586.13 854.99 600.17 860.23 614.09 865.80 C 624.26 868.94 635.49 871.33 645.90 867.84 C 654.10 864.46 661.89 860.16 669.31 855.32 C 679.96 848.50 691.46 842.64 703.99 840.32 C 722.08 836.69 741.43 839.56 757.67 848.32 C 771.66 855.39 783.61 865.64 796.38 874.57 C 805.79 880.81 815.93 886.29 826.97 889.00 C 833.41 890.70 840.71 889.14 845.69 884.67 C 851.91 879.23 857.02 872.64 863.35 867.32 C 869.58 862.28 877.99 859.05 885.99 861.22 C 895.73 863.76 903.77 870.34 910.74 877.35 C 916.35 882.69 921.19 888.77 926.68 894.24 C 934.45 902.23 942.05 911.13 952.69 915.35 C 959.25 918.28 966.70 917.29 973.42 915.43 C 984.53 912.87 994.74 906.87 1002.59 898.63 C 1017.25 882.29 1026.93 861.98 1042.70 846.58 C 1047.39 852.84 1051.98 859.17 1056.26 865.72 C 1048.07 881.67 1040.24 898.50 1026.76 910.77 C 1019.59 917.24 1011.20 922.15 1002.82 926.86 C 989.09 934.30 974.02 941.20 958.04 940.31 C 948.93 940.04 940.72 935.72 932.38 932.55 C 920.63 927.70 907.79 923.55 894.96 925.66 C 888.47 926.40 883.92 931.62 880.90 936.98 C 875.78 946.25 873.77 956.97 867.88 965.84 C 864.14 970.86 859.22 975.51 852.98 977.05 C 839.20 981.19 824.63 978.95 810.61 977.45 C 796.62 975.92 782.31 973.42 768.34 976.40 C 759.28 978.01 751.62 983.43 743.68 987.72 C 742.26 988.48 740.70 988.90 739.17 989.37 C 727.75 978.34 720.68 963.80 714.49 949.41 C 709.39 937.07 702.64 925.26 693.41 915.55 C 683.24 904.71 670.04 896.97 655.94 892.46 C 644.37 888.79 632.24 886.36 620.05 887.04 C 610.54 896.30 597.71 901.07 585.09 904.37 C 571.36 907.83 557.19 909.31 543.06 909.81 C 527.20 909.12 511.57 906.00 495.86 904.11 C 465.21 898.10 433.65 894.59 404.60 882.47 C 394.07 877.98 384.01 872.20 375.29 864.76 C 369.51 859.80 364.91 852.77 364.93 844.93 C 364.98 835.43 370.05 826.92 375.35 819.38 C 386.36 804.24 399.98 791.25 411.51 776.52 C 419.87 765.82 427.79 754.04 430.30 740.45 C 431.71 731.75 430.85 722.31 426.50 714.53 C 423.05 708.40 415.70 705.91 409.00 706.12 C 392.17 706.40 375.79 713.62 358.85 710.85 C 345.85 708.64 335.74 698.67 329.25 687.71 C 318.73 669.76 314.71 648.60 314.82 627.97 C 315.20 613.63 317.10 598.82 323.96 586.01 C 327.05 580.22 331.35 575.11 336.45 570.99 C 344.09 565.22 353.43 561.95 362.94 561.14 C 378.45 559.77 394.06 563.46 408.16 569.81 C 417.88 574.11 427.89 578.09 436.53 584.40 C 443.91 589.75 449.48 597.17 454.06 604.97 C 462.75 619.41 467.49 635.71 473.35 651.40 C 476.20 658.79 478.90 666.43 483.94 672.68 C 492.12 683.53 504.74 690.40 517.89 693.19 C 533.94 696.60 551.04 694.64 566.00 687.95 C 572.58 685.01 578.51 680.09 581.53 673.43 C 588.25 658.71 582.72 641.16 590.84 626.87 C 596.73 616.37 607.98 610.60 619.02 606.99 C 628.45 603.68 638.39 600.77 646.18 594.22 C 653.32 588.36 657.71 579.79 659.96 570.95 C 665.38 552.09 663.36 532.16 667.44 513.09 C 670.18 500.03 677.53 488.24 687.41 479.38 C 703.08 464.91 723.34 457.30 741.34 446.38 C 754.03 438.82 765.57 428.74 772.78 415.69 C 782.60 398.07 789.17 378.78 793.58 359.15 C 797.33 341.12 799.72 321.69 793.10 304.03 C 790.10 295.67 783.06 289.62 775.30 285.75 C 764.23 280.11 753.16 273.38 745.86 263.04 C 742.74 258.66 741.50 253.16 737.88 249.11 C 733.95 244.89 728.27 242.52 722.53 242.33 C 713.89 241.73 705.17 242.07 696.61 243.37 C 692.83 244.04 688.94 244.72 685.54 246.57 C 681.64 249.02 679.16 253.18 677.67 257.44 C 675.06 265.09 674.92 273.25 673.66 281.17 C 672.08 293.52 663.68 303.67 654.77 311.78 C 640.20 324.45 622.18 332.38 603.95 338.24 C 589.68 341.50 574.00 342.88 560.27 336.78 C 550.34 332.44 543.10 323.56 539.01 313.71 C 533.05 298.98 532.04 282.86 532.05 267.14 C 532.57 265.78 532.67 263.89 534.28 263.34 C 540.46 260.59 547.16 257.72 554.08 259.06 C 562.13 260.40 567.81 266.82 574.98 270.12 C 581.97 273.37 588.73 277.12 595.83 280.12 C 600.28 282.15 605.23 282.04 610.02 282.06 C 615.28 282.06 620.36 284.72 625.65 283.53 C 632.62 281.94 637.78 276.62 642.89 271.99 C 647.76 268.03 651.90 262.99 654.17 257.09 C 657.12 250.12 659.12 242.26 665.13 237.16 C 670.14 232.38 677.59 233.03 683.92 233.76 C 689.21 234.51 695.20 234.09 699.34 230.33 C 704.09 225.57 706.84 219.22 711.42 214.32 C 715.55 210.51 721.44 208.97 726.95 209.87 C 737.09 211.08 746.68 215.11 756.91 215.84 C 753.68 211.10 748.48 208.32 743.85 205.18 C 730.50 197.39 715.10 190.81 699.32 193.44 C 688.63 195.01 680.66 203.12 673.90 210.90 C 670.80 214.80 667.26 218.30 663.38 221.40 C 657.08 226.46 651.25 232.32 643.86 235.80 C 636.40 239.50 627.96 239.95 619.87 241.18 C 609.08 242.74 597.64 242.13 587.72 237.25 C 578.56 232.50 571.87 224.34 563.44 218.56 C 559.24 215.65 553.66 213.64 548.66 215.61 C 543.53 217.57 540.00 221.91 535.71 225.12 C 537.07 218.21 538.95 211.35 542.12 205.03 C 550.10 203.90 557.87 201.03 566.00 201.16 C 570.72 201.08 574.63 204.14 578.13 206.93 C 586.11 213.99 595.50 219.90 606.02 222.19 C 614.08 224.04 622.49 222.18 629.91 218.86 C 638.07 215.28 646.01 211.21 653.70 206.72 C 667.11 198.96 678.55 187.85 693.14 182.14 M 697.09 868.09 C 685.73 871.62 674.62 876.53 662.64 877.52 C 661.13 877.74 659.48 877.62 658.19 878.53 C 667.22 881.50 675.97 885.27 685.02 888.19 C 692.31 890.26 700.40 889.91 707.00 894.11 C 716.76 900.58 722.51 911.15 730.31 919.63 C 738.59 928.37 746.72 937.65 757.29 943.71 C 763.28 947.34 770.12 949.26 777.04 950.09 C 792.34 951.96 807.93 951.14 823.07 948.31 C 833.71 946.12 843.85 941.81 853.14 936.21 C 858.10 932.94 863.26 928.52 863.85 922.19 C 860.05 923.81 856.18 925.39 852.04 925.82 C 841.33 927.00 830.46 925.72 820.07 923.05 C 807.28 920.21 795.15 914.25 785.18 905.75 C 779.23 901.09 774.14 895.50 768.87 890.14 C 758.74 877.85 745.01 867.48 728.96 864.93 C 718.29 862.82 707.27 864.67 697.09 868.09 Z" />
<path fill="#26a9e1" opacity="1.00" d=" M 101.03 711.57 C 102.85 712.85 104.74 714.06 106.32 715.65 C 118.50 727.82 132.20 738.52 143.12 751.92 C 153.16 764.05 160.48 778.37 164.57 793.57 C 167.28 803.08 169.13 813.11 174.50 821.59 C 183.33 836.43 200.91 843.54 208.90 859.06 C 212.53 867.18 217.91 874.65 224.99 880.11 C 232.16 885.47 241.27 886.82 249.86 888.26 C 260.13 889.74 270.42 892.33 279.44 897.60 C 288.36 902.70 295.56 910.14 303.68 916.32 C 333.02 937.92 369.42 949.91 405.91 949.18 C 421.14 948.51 436.37 949.54 451.59 950.03 C 447.65 958.83 445.08 968.34 444.94 978.02 C 444.57 992.96 449.95 1007.98 459.79 1019.23 C 465.18 1025.48 471.41 1030.92 477.14 1036.84 C 484.62 1044.40 491.38 1053.37 493.31 1064.07 C 485.56 1064.55 477.66 1064.19 470.17 1062.04 C 464.66 1059.99 459.55 1056.74 455.32 1052.68 C 447.38 1043.00 444.83 1030.43 439.75 1019.27 C 436.83 1013.58 433.09 1007.17 426.41 1005.53 C 416.61 1002.67 406.83 1007.19 397.88 1010.80 C 390.01 1014.15 381.73 1017.52 372.99 1016.88 C 362.84 1016.75 354.02 1010.71 344.00 1009.90 C 333.61 1008.85 323.32 1011.44 312.94 1011.23 C 295.20 1011.27 277.78 1004.15 264.41 992.65 C 259.83 988.07 255.62 982.93 253.03 976.94 C 248.47 967.45 247.23 956.88 244.09 946.93 C 240.61 934.68 234.19 922.83 223.88 915.04 C 212.56 905.31 198.09 899.26 189.01 887.03 C 182.52 878.34 179.56 867.58 173.14 858.85 C 168.09 852.83 162.31 847.25 155.30 843.57 C 148.78 840.07 142.44 836.27 136.02 832.62 C 119.56 793.88 107.66 753.15 101.03 711.57 M 244.14 920.23 C 246.02 922.90 248.97 924.51 251.28 926.77 C 259.99 933.98 267.02 943.77 269.12 955.04 C 271.32 964.72 274.04 975.30 282.43 981.56 C 295.06 992.10 312.47 991.93 328.02 991.82 C 344.53 991.23 360.09 999.81 376.66 997.60 C 388.51 995.56 396.65 985.30 408.07 982.23 C 412.46 980.93 416.86 982.28 421.18 983.12 C 420.59 980.12 417.81 978.28 415.61 976.46 C 408.59 972.09 400.08 971.03 391.98 970.84 C 385.99 970.86 379.81 970.36 374.05 972.32 C 368.47 974.11 363.02 977.07 357.00 976.84 C 346.70 976.24 338.32 968.63 327.98 968.15 C 320.22 967.59 311.80 970.53 304.61 966.32 C 297.27 961.84 295.08 952.96 290.93 945.99 C 285.17 937.14 276.26 930.86 267.01 926.08 C 259.83 922.87 252.15 919.72 244.14 920.23 Z" />
</g>
</svg>
