<?xml version="1.0" encoding="utf-8"?>
<!-- Generator: Adobe Illustrator 16.0.0, SVG Export Plug-In . SVG Version: 6.00 Build 0)  -->
<!DOCTYPE svg PUBLIC "-//W3C//DTD SVG 1.1//EN" "http://www.w3.org/Graphics/SVG/1.1/DTD/svg11.dtd">
<svg version="1.1" id="Layer_1" xmlns="http://www.w3.org/2000/svg" xmlns:xlink="http://www.w3.org/1999/xlink" x="0px" y="0px"
	 width="1760px" height="170px" viewBox="0 0 1760 170" enable-background="new 0 0 1760 170" xml:space="preserve">
<title>Page 1</title>
<desc>Created with Sketch.</desc>
<path fill="#A567A5" d="M0,170v-46.955c0,0,10.503-31.023,11.502-64.563h24.006l5.001-11.738l13.003,19.709l21.505,5.445l4.5-12.996
	l18.005,21.798l15.503,8.805l4.501,15.093l10.503,0.839l-3.501-13.416l9.502-2.935l13.003-10.062c0,0,14.503-41.763,22.005-13.544
	c7.502,28.218,9.002,33.25,9.002,33.25l19.504,12.576l11.003,11.738l21.005,2.097l31.507,18.446l24.36,10.9l17.149-11.319
	l28.006-4.601l25.006,11.307l20.505-2.515c0,0,4.001-11.318,5.001-14.253c1.001-2.936,12.503-9.643,12.503-9.643l16.004-7.926
	l20.504-14.923c0,0,15.003-1.468,29.507-8.175l5.001,25.299l2.5,13.69l15.003-22.221l16.503,0.839l24.505-0.419l16.504,5.909
	l23.505-2.975l26.006,9.224l22.505,14.254l4.669,13.695l32.34-8.107c0,0,22.338-12.295,22.672-13.135
	c0.333-0.839,15.671-5.869,17.004-6.707c1.333-0.838,9.668-13.977,11.001-15.093C700.663,105.577,719,93.559,719,93.559
	l20.005-12.858l13.003-3.073l13.669,5.868c0,0,15.671,11.459,24.006,25.436c8.335,13.975,7.001,10.899,7.001,10.899
	s12.336-2.713,13.337-4.292c1-1.579,18.671-16.948,20.005-18.348c1.333-1.397,10.668,3.774,11.668,3.425
	c1-0.35,28.34-11.808,28.34-11.808l18.338-22.355c0,0-10.336,52.538,21.003,69.309c0,0-1.334,22.358,6.669,20.404v5.03h17.338
	h13.335l9.337-12.856l15.004,8.105l26.672-12.019l25.183-11.459c0,0-0.845,12.018,5.157,14.254
	c6.002,2.235-7.336-26.271,18.005-27.95c0,0,24.007-6.149,30.341-18.166l19.004,1.118l25.673,8.105l50.678,22.079l-2.667,6.16
	l10.67-8.117c0,0,7.751,8.315,19.254,11.251c11.502,2.935,6.002,2.514,6.002,2.514l-5.251,8.596l12.002-0.63l23.755,1.259
	c0,0,9.253-15.513,9.753-17.398c0.5-1.887,5.002-13.416,6.252-13.836c1.251-0.418,23.756-5.239,23.756-5.239
	s5.251-5.451,6.251-6.081c1-0.628,5.583-0.837,5.583-0.837s9.338,15.371,11.338,16.488c2.001,1.119,18.003,18.448,25.672,16.213
	c7.669-2.238,7.002-6.15,7.002-6.15l4.667-26.83c0,0-2.332-7.546,0-8.104c2.334-0.561,26.007-9.783,26.007-9.783l10.336-9.224
	c0,0,15.67,5.03,16.67,5.311c1.001,0.28,2.001,10.062,2.001,10.762c0,0.698-3.334,5.729,2.668,11.318
	c6.001,5.59,14.668,6.986,16.67,8.104c1.999,1.118,3.334,9.503,3.667,8.664c0.333-0.838,1.335-19.283,6.669-25.713
	c5.334-6.429,13.669-15.093,14.67-15.093c1,0,7.003,4.472,13.337,5.87c6.334,1.397,12.334,7.267,20.671,8.104
	c8.336,0.839,23.673,5.311,24.673,6.149c1,0.84,12.67,8.104,13.67,12.298c1,4.192,7.001,20.135,7.001,20.135l6.668,15.64
	l2.335-38.669c0,0,23.006-6.049,24.006-6.049s25.006-8.665,30.34-10.76c5.334-2.098,24.004-8.525,26.339-8.525
	s16.004-4.472,16.004-4.472l16.338,38.849c0,0-0.001,5.59,2.666,5.869s38.008,8.117,38.008,8.117s-10.335-67.637,11.004-72.115
	c21.339-4.477,35.676-7.272,35.676-7.272l10.335-1.398c0,0,11.336-3.354,12.003-0.28c0.667,3.075,5.003,11.74,6.336,13.416
	c1.333,1.676,7.834,10.621,7.834,10.621V170H0z"/>
<g>
	<path fill="#7C5378" d="M285.394,170l34.907-23.525l3.245,7.775c0,0,31.003,10.499,66.009,0v-15.347c0,0,0.556-2.941,2.129-7.682
		l61.45-28.773l7.431,45.34l29.004-25.847c0,0,30.004-8.884,57.008,5.652c27.004,14.538,13.001,1.617,13.001,1.617
		s-2.175-3.706-3.814-8.764l41.797,15.689c1.783,6.626,5.52,14.192,12.024,22.779l56.009-9.514l37.005-19.384l12.262-24.05
		l36.543-18.467l23.205,13.843l21.003,27.059l46.933-20.722l63.465,33.215c-4.429,10.21-3.754,19.653,9.619,23.853h32.004
		c0,0,4.691-4.971,10.704-12.104l13.035,8.109l42.394-18.539c4.038,8.219,11.407,13.243,23.88,12.034c0,0-6.547-10.203-2.688-21.303
		l51.888-22.689l75.501,24.388c0.079,5.252,0.443,9.206,1.316,9.912c0.855,0.69,6.178-1.573,13.348-5.176l20.201,6.524
		c-5.973,7.454-10.546,13.19-10.546,13.19l52.007-1.616l15.537-28.222l28.218-11.299l10.253,16.903l40.007,16.963l9.905-46.402
		l35.386-14.675l8.716,27.153l30.005,23.424c0,0,4.13-26.543,19.988-45.874l59.804,19.9l-2.781,15.473l31.004,33.924l7.283-42.014
		l79.001-28.031l5.729,6.663l14.002,32.691l58.009,15.344c0,0-12.21-50.411-2.264-74.733l55.395-9.592l12.878,22.94l5.5,56.541V170
		H285.394z"/>
	<path fill="#7C5378" d="M0,144.558c0,0,12.502-4.847,14.502-43.213c0,0,3.751-17.371,9.489-32.03l43.885,13.574l0,0.001
		l35.451,10.967c2.115,7.852,4.188,16.776,4.188,16.776l32.005,9.692c0,0-2.532-10.816-2.827-23.247l11.505-6.736l36.479,21.181
		c3.795,10.898,9.929,20.761,19.852,24.149h14.002h7.739L285.394,170H0V144.558z"/>
</g>
</svg>
