<?xml version="1.0" encoding="utf-8"?>
<!-- Generator: Adobe Illustrator 16.0.0, SVG Export Plug-In . SVG Version: 6.00 Build 0)  -->
<!DOCTYPE svg PUBLIC "-//W3C//DTD SVG 1.1//EN" "http://www.w3.org/Graphics/SVG/1.1/DTD/svg11.dtd">
<svg version="1.1" id="Layer_1" xmlns="http://www.w3.org/2000/svg" xmlns:xlink="http://www.w3.org/1999/xlink" x="0px" y="0px"
	 width="1782px" height="211px" viewBox="0 0 1782 211" enable-background="new 0 0 1782 211" xml:space="preserve">
<title>Page 1</title>
<desc>Created with Sketch.</desc>
<g>
	<path fill="#E85BC0" d="M1740.932,145.713c0,0-8.997-15.789-23.335-28.422c-1.822-0.489-3.706-0.996-5.647-1.521
		c-3.383-0.915-5.979-3.848-7.956-8.143c-16.276-8.802-19.702-56.746-20.38-81.183c-1.128,0.314-2.262,0.634-3.394,0.95
		l-12.29,57.719l4.13-55.459c-5.043,1.381-8.966,2.416-9.791,2.528c-2.705,0.365-2.704,7.665-2.704,7.665l-16.562,50.742
		c0,0-13.855-5.839-16.222-5.839c-0.924,0-4.372-1.281-8.551-3.002l-18.571,49.363l-27.038,14.604l-3.139-86.122
		c-0.071-0.021-0.125-0.032-0.155-0.032c-1.015,0-24.334-7.902-24.334-7.902l-2.366-50.506l-6.76,20.428
		c0,0-6.083,20.822-7.097,26.297c-1.015,5.476-12.844,14.969-13.857,16.064c-0.512,0.554-4.729,2.316-9.868,4.066l5.39,41.2
		c-22.497,6.317-38.7-11.543-47.024-24.195c-4.063,2.345-7.27,5.214-7.979,5.214c-1.015,0-9.464-11.318-14.871-19.713
		c-1.289-2.001-2.326-4.899-3.165-8.16c-0.761,1.52-1.539,3.253-2.326,5.239c-6.085,15.331,9.124,21.355,7.604,22.451
		c-1.521,1.095-26.362,18.618-26.362,18.618l-3.549-11.5l-20.278,2.737l-10.646,37.235l-6.59-21.362l-4.056-25.729l-12.754-18.617
		c-1.871-0.881-3.244-1.495-3.723-1.644c-1.082-0.333-1.171-2.576-0.952-4.909l-1.836-2.574
		c-5.419-11.606-3.777-24.422-1.306-33.415l-0.639-4.733c0,0,0.677-5.11-7.097-8.032c-2.52-0.946-5.928,0.799-9.452,3.631
		c-7.43,15.791-18.515,42.549-18.515,42.549l-8.22-6.248c-0.813,1.685-1.329,2.78-1.329,2.78s-4.646-0.274-5.659-1.096
		c-1.015-0.821-6.338-7.939-6.338-7.939s-22.813-6.297-24.08-6.845c-1.066-0.462-4.468-11.203-5.82-16.062l-41.27-23.55l-5.38-0.363
		l5.322,11.226c0,0,5.577-0.548-6.083,3.286c-11.66,3.834-19.518,14.694-19.518,14.694l-10.815-10.602l2.704,8.045l-18.161,10.197
		l3.205,50.221l-14.701,6.022l-17.743,10.405l-3.042-8.213l-30.925-13.143l-4.087-15.453l-11.205,0.85
		c-6.421-15.696-30.756-23.727-30.756-23.727c-25.687-2.19-12.167-39.428-18.25-36.507c-6.084,2.922-5.229,18.619-5.229,18.619
		l-10.754-6.305c-17.419,17.971-6.916,79.499-6.916,79.499c-9.125-0.55-29.402-77.209-29.402-77.209l-25.855-12.595l-12.167,16.427
		l-8.111-7.133l-21.907,3.042c0.015,0.396,0.024,0.625,0.024,0.625c-4.768,3.287-8.577,7.631-11.619,12.63l26.404,47.238
		c0,0-6.084-10.952-5.576,8.761c0.507,19.713-24.334,6.023-24.334,6.023l-7.755-4.356c0.31,11.842,1.588,20.229,1.588,20.229
		L882.57,86.573c0,0-27.714-14.967-28.728-15.423c-1.014-0.456-10.477,6.296-11.829,4.47c-0.383-0.518-2.101-2.508-4.389-5.136
		l-46.392,45.285l-3.548-4.373L771.106,96.65l-8.179,4.524l-9.238-2.814l-11.631,8.655l-12.59-26.648c0,0-11.588-9.848-26.446-7.939
		c-14.857,1.906-66.411-50.849-66.411-50.849l6.59,26.297L628.5,33.094l-9.75-6.671L597.83,43.497l-4.747,2.168
		c0.234,38.596,24.264,53.686,24.264,53.686l-17.236,16.419c0,0-9.632-16.419-16.223-20.253
		c-6.59-3.833-12.167-16.153-12.167-16.153v-19.44l-15.208,1.096l-10.139,5.475v-4.928L528.63,77.074l-42.922,22.458l-29.742-18.069
		l-6.421,21.172l-16.223,26.833l-1.774-23.546c0,0-1.268-14.238-14.956-28.848c-13.688-14.611,0-14.138,0-14.138
		s-27.375-24.915-30.67-27.925c-3.296-3.013-9.379-5.205-9.379-5.205l-7.097,3.652c0,0-8.787-11.681-10.477-11.879
		c-1.689-0.197,0,12.792,0,12.792l-12.167,9.491l-2.028-7.3l-20.447-14.982l-1.859,6.039L293.91,118.88l-12.674,13.689
		l-2.704-14.603L248.621,81.28l36.163,8.213l-1.389-9.006c-1.392,0.48-2.927,0.399-4.042-0.502
		c-8.004-6.464-13.832-15.847-20.461-23.854c-3.844-4.644-7.593-9.365-11.574-13.873c-2.393-2.708-5.666-4.824-7.543-8.004
		l-6.447,4.864l-21.292,2.737l-11.153,15.333l-19.771,16.427c0,0-1.521,6.571-9.125,43.428c-7.604,36.856-22.306-17.69-22.306-17.69
		L136.5,86.208l-9.632-3.833l3.548-17.522l-10.646,1.096l-4.563,19.711l-15.716,11.5l-18.25,28.475l-4.563-16.976l-21.799,7.11
		l-13.181,25.743l-5.07-15.331H16.37c-0.104,0.099-0.213,0.204-0.313,0.298c-4.747,4.54-9.794,8.699-15.421,11.732v28.491h1784.485
		V133.3l-21.209-0.729L1740.932,145.713z"/>
	<path fill="#E85BC0" d="M1354.715,69.78c0.479,0.149,1.852,0.763,3.723,1.644l-0.001-0.001l-4.674-6.552
		C1353.544,67.204,1353.633,69.446,1354.715,69.78z"/>
	<path fill="#E85BC0" d="M1455.431,90.224c0.71,0,3.916-2.869,7.979-5.214c-4.181-6.356-6.375-11.397-6.375-11.397l-10.308-21.903
		c0,0-4.227,0.419-9.333,10.641c0.839,3.26,1.876,6.158,3.165,8.16C1445.967,78.906,1454.416,90.224,1455.431,90.224z"/>
	<path fill="#E85BC0" d="M1342.886,16.117c7.773,2.922,7.097,8.032,7.097,8.032l0.639,4.733c1.924-6.991,4.348-11.669,4.348-11.669
		s-12.674-8.762-15.209-8.762c-0.748,0-3.217,4.688-6.326,11.297C1336.958,16.916,1340.366,15.171,1342.886,16.117z"/>
	<polygon fill="#E85BC0" points="771.106,96.65 761.83,88.399 753.691,98.36 753.69,98.36 762.928,101.174 	"/>
	<path fill="#E85BC0" d="M1269.293,42.949c1.268,0.547,24.08,6.845,24.08,6.845s5.323,7.118,6.338,7.939
		c1.013,0.821,5.659,1.096,5.659,1.096s0.517-1.096,1.329-2.78l-23.719-18.028l-19.508-11.133
		C1264.825,31.746,1268.227,42.487,1269.293,42.949z"/>
	<path fill="#E85BC0" d="M922.451,25.244c0,0-0.01-0.229-0.024-0.625l-17.636,2.448l6.041,10.807
		C913.874,32.875,917.684,28.531,922.451,25.244z"/>
	<path fill="#E85BC0" d="M1711.949,115.77c1.941,0.525,3.825,1.032,5.647,1.521c-4.122-3.631-8.684-7.006-13.604-9.664
		C1705.97,111.922,1708.566,114.854,1711.949,115.77z"/>
	<path fill="#E85BC0" d="M618.75,26.423l-20.667-14.139c-3.643,12.678-5.059,23.757-5,33.38l4.747-2.168L618.75,26.423z"/>
	<path fill="#E85BC0" d="M1683.476,12.102l-3.256,15.292c1.132-0.316,2.266-0.635,3.394-0.95
		C1683.374,17.808,1683.476,12.102,1683.476,12.102z"/>
	<path fill="#E85BC0" d="M1784.937,96.389l0.185,36.911V96.063C1785.121,96.063,1785.055,96.182,1784.937,96.389z"/>
</g>
<path fill="#412043" d="M1765.729,141.614l-4.182,9.965l-18.25,19.165c0,0,2.027-10.949-23.827-26.829
	c-4.559-2.802-7.74-8.246-9.898-15.306l-37.638-8.718l-38.877-18.448l-27.651,43.017l-39.543,18.471l-12.896-99.493l-6.532-3.101
	l-29.462,13.111l6.305,46.917c-32.936,16.217-53.86,1.37-66.931-19.937l-39.402,17.536l-20.116-11.159l-13.47,56.125l-17.237-43.658
	l-5.165-32.363l-23.984-13.305l-13.908,8.679l-23.102-12.371l-13.939,30.742l-14.668-46.063l-49.129-26.31l-8.653,3.736
	c10.433,17.417,25.074,41.757,27.488,45.223c0.227,0.222,0.35,0.364,0.35,0.415c0,0.061-0.125-0.093-0.35-0.415
	c-3.383-3.307-30.863-24.88-47.967-36.375l-14.866,6.424c-0.195,17.35,1.334,45.149,1.334,45.149l-54.751,30.118l10.139-16.428
	l-40.557-13.72l-45.625,19.195c0,0,39.542-21.903,14.194-41.616c-8.011-6.231-12.069-13.446-13.879-20.4L1027.6,37.023
	c-12.318,33.54,5.959,106.343,5.959,106.343s-32.445-42.711-36.501-66.804c-2.503-14.873-15.82-38.085-25.649-53.679l-18.079,15.042
	l-18.545-10.607L918.36,38.813c7.601,23.428,30.029,49.842,30.029,49.842l-45.626,59.091l-20.278-47.091l-28.464-16.807
	l-65.277,45.691l-27.12-18.331l-21.087,16.824L724.58,86.171l-8.45-5.71l-20.107,8.574l-39.407-33.753l-11.591,7.717L618.367,38.89
	l-12.702,6.376c-7.911,39.366,22.329,54.293,22.329,54.293l-28.39,26.283c0,0-10.139-13.141-28.767-25.187
	c-11.467-7.417-10.207-23.126-7.546-34.114l-79.375,39.853l-24.668-15.45l-1.592,12.996l-25.348,41.615l-9.125-37.234
	c-15.589-20.498-23.016-43.429-26.231-56.389L376.126,38.89l-31.294,10.607l-20.246-18.248l-28.143,90.212l-17.237,17.525
	l-6.083-16.429L237.637,74.37l41.57,12.047l-41.57-40.521h-8.375l-42.167,32.742c-6.234,23.946-6.236,51.584-6.236,51.584
	l-7.099,16.428c0,0,22.306,1.096-12.167,1.096c-19.808,0-23.547-26.757-23.144-49.521l-8.04-6.298l-25.784,10.668
	c-1.505,7.47-3.03,14.228-3.867,15.582c-2.028,3.284-9.125,26.283-9.125,26.283l-17.237,5.477l-5.711-32.476l-0.001,0.001
	l-7.469,10.222L49.05,149.937c-9.142,26.138-18.283,8.377-24.853-14.066l-24.322,10.061v39.537v25.798H1784.36v-25.798v-39.537
	L1765.729,141.614z"/>
<path fill="#7A4272" d="M1776.491,185.682c-1.521,0-10.139,16.848-10.139,16.848l-6.591-16.848l-17.743,16.848l-17.328-8.104
	l-0.94-18.088l-37.945-46.546l-0.647-4.133c-1.696,0.577-3.181,1.978-3.443,3.774c-0.716,4.899-3.251,10.281-0.627,15.076
	c3.173,5.799,9.305,9.724,13.999,14.041c4.576,4.208,8.909,8.447,14.193,11.624c3.684,2.213,8.638,4.442,10.477,8.82l-16.26,12.128
	l-24.979,14.235l-17.583-14.784l-28.716-6.01l-25.638,14.771l-21.024-3.288c0,0-4.102-14.782-5.127-18.616
	c-1.026-3.831-12.82-12.595-12.82-12.595l-16.409-10.352l-21.023-19.491c0,0-15.383-1.915-30.254-10.679l-5.128,33.046l-2.563,17.88
	l-15.384-29.021l-16.922,1.095l-25.125-0.547l-16.922,7.717l-24.101-3.885l-21.863,9.878c0.059,9.623-1.374,20.705-5.06,33.381
	l-20.904-14.14l-1.913,1.546l-4.787,17.888l-33.158-10.587c0,0-22.903-16.064-23.246-17.157c-0.341-1.095-16.067-7.667-17.435-8.763
	c-1.366-1.096-9.913-18.251-11.281-19.712c-1.366-1.462-20.168-17.157-20.168-17.157l-20.513-16.794l-3.987-1.199l-8.233,9.962
	l-9.383-8.253l-5.743,3.141c0,0-16.065,14.97-24.614,33.222c-8.546,18.253-7.177,14.236-7.177,14.236s-12.65-3.543-13.677-5.606
	c-0.734-1.474-10.235-12.19-16.072-18.826l-6.403,6.182l-56.252-31.239c0.446,16.955-1.126,40.99-11.391,57.668l6.109,10.808
	l-17.839,2.446c0.143,4.182,0.64,28.362-6.86,26.024v6.573h-31.45l-9.571-16.793l-15.385,10.585l-27.347-15.695l-14.943-8.664
	c-17.617,17.971-36.591,30.567-36.591,30.567l-35.381-58.593l-5.096-19.045l-8.152,0.609l-26.323,10.588l-33.591,18.646
	l0.859,13.296l-33.331,34.499l-20.056-11.317l-6.865-0.456l-24.357,1.641c0,0-9.485-20.259-9.999-22.723
	c-0.082-0.388-0.266-1.097-0.523-2.011l-19.733-11.132l-23.989-18.027c-2.708,5.562-8.705,17.637-10.28,18.755
	c-1.386,0.99-9.33,11.64-16.763,17.546c-3.144,6.607-5.642,11.297-6.398,11.297c-2.563,0-15.383-8.764-15.383-8.764
	s2.452-4.676,4.397-11.666l-4.141-30.314c0,0,0.701-2.904,0.963-5.676l-4.727-6.553v-0.001c-7.464-3.47-22.9-11.135-22.9-11.135
	l-10.598-12.047c0,0-16.067,6.572-17.093,6.938c-1.026,0.364-2.052,13.14-2.052,14.053s3.419,7.486-2.735,14.787
	c-6.153,7.3-15.041,9.126-17.092,10.584c-2.052,1.461-3.418,12.415-3.761,11.32c-0.26-0.834-0.92-15.006-3.635-25.427
	c-5.166,10.223-9.441,10.641-9.441,10.641l-10.427-21.905c0,0-2.219-5.039-6.447-11.394c-1.753,1.002-3.661,1.907-5.603,2.45
	c-6.495,1.827-12.647,9.494-21.194,10.588c-4.232,0.542-10.221,2.248-15.317,3.963l3.437,25.972l-24.614,40.886l-51.278,2.919
	l-23.245-38.692l30.766-16.063l-0.243-6.605c-2.33-0.639-25.646-11.364-30.951-14.023c-3.335-1.666-11.751-5.438-18.358-8.132
	l-3.094,8.132l-21.194-5.748l-6.831,31.41c2.143,0.907,3.596,3.117,2.464,6.103c-1.507,3.98-3.494,7.071-5.842,9.43l-3.466,15.938
	l-17.091-5.097l0.356-4.739c-2.374-0.229-4.798-0.674-7.235-1.284c-0.257,0.068-0.512,0.139-0.769,0.208l-3.293,15.294
	c0,0,0.104-5.708-0.139-14.342c-9.002,2.495-17.38,4.863-17.38,4.863s0.684-5.711,1.348-14.322
	c-4.966-2.725-9.444-5.661-12.994-8.287c-15.861-11.731-24.397-29.966-28.445-49.676c-14.612,25.754-29.87,51.133-44.615,76.819
	l-27.752-12.777l-46.64,9.984l-23.32,12.48l-24.334-12.48l-44.854,6.24v18.72h167.012l0.072,14.354h1559.355l-1.623-31.188
	l1.623,16.835h58.047v-8.736C1784.36,202.529,1778.013,185.682,1776.491,185.682z"/>
</svg>
