<?xml version="1.0" encoding="utf-8"?>
<!-- Generator: Adobe Illustrator 16.0.0, SVG Export Plug-In . SVG Version: 6.00 Build 0)  -->
<!DOCTYPE svg PUBLIC "-//W3C//DTD SVG 1.1//EN" "http://www.w3.org/Graphics/SVG/1.1/DTD/svg11.dtd">
<svg version="1.1" id="Layer_1" xmlns="http://www.w3.org/2000/svg" xmlns:xlink="http://www.w3.org/1999/xlink" x="0px" y="0px"
	 width="276px" height="280px" viewBox="0 0 276 280" enable-background="new 0 0 276 280" xml:space="preserve">
<polyline fill="#606060" stroke="#000000" stroke-width="3" stroke-miterlimit="10" points="176.576,208.974 184.995,204.614 
	183.866,219.311 179.142,221.068 "/>
<path opacity="0.4" d="M36.904,56.167l11.528,16.694l-3.548,19.587l19.381,12.709l5.375-55.671
	C69.64,49.486,40.308,53.171,36.904,56.167z"/>
<g>
	<path fill="#FFFFFF" d="M104.134,22.459c24.962-15.077,58.432-16.425,82.867,0.531c23.494,14.832,35.917,43.308,33.839,70.727
		l-5.989,0.244c-0.283-20.552-6.761-41.716-21.986-56.139c-16.897-17.855-42.802-25.167-66.779-21.083
		C118.711,18.416,111.378,20.334,104.134,22.459z"/>
	<path fill="#FFFFFF" stroke="#000000" stroke-width="3" stroke-miterlimit="10" d="M25.992,53.513
		C37.844,45.87,55.96,45.91,69.64,50.488c-11.032,1.307-22.071,2.574-32.736,5.679c3.909,5.597,8.064,11.032,11.644,16.874
		C38.082,71.938,30.634,61.438,25.992,53.513z"/>
	<path fill="#FFFFFF" d="M204.389,230.793c1.508-1.352,4.522-4.046,6.024-5.354c6.518,14.507,6.191,34.813-11.316,41.35
		C206.708,256.372,211.273,242.846,204.389,230.793z"/>
	<path fill="#080606" d="M259.523,179.313c-2.568-4.373-7.494-9.275-12.707-5.355c-13.682,6.782-27.118,14.098-40.392,21.695
		c-10.668-5.265-15.682-16.71-16.66-28.067c4.28,3.795,8.272,7.97,13.036,11.196c11.159,2.29,23.984-4.575,25.938-16.303
		c2.321-10.869-7.167-18.632-12.988-26.354c15.518-22.962,20.646-52.99,10.794-79.263C214.692,22.05,178.612-2.505,141.88,0.07
		C113.336,0.599,87.845,17.841,72.17,41.05c-18.409-0.494-42.432-5.23-55.954,10.989c5.21,9.564,12.053,18.021,20.279,25.087
		c-4.969,5.681-19.013,11.196-13.034,20.307c10.831,10.706,26.469,13.853,41.045,15.731c5.91,15.934,16.091,29.785,28.751,40.981
		c-12.013,16.344-13.925,38.407-4.843,56.628c-8.271,6.904-17.065,13.688-22.563,23.21l-1.914,4.942c1.1-0.153,2.2-0.309,3.3-0.463
		c1.731-2.6,3.722-5.055,5.764-7.315c7.029-7.783,16.117-14.986,25.372-20.032c-4.014-5.088-6.903-10.9-7.556-17.911
		c-4.279-12.255,2.194-23.738,7.818-34.239c6.676,3.062,16.042,4.291,18.037,12.707c4.646,12.339,10.67,24.477,21.667,32.317
		c6.266,4.494,12.867,8.583,19.419,12.669c2.65-1.104,8.025-3.269,10.67-4.37c-18.12-8.336-35.874-20.716-43.246-40.168
		c10.752-0.489,21.502-1.225,32.252-2.042c15.35-1.84,31.151,12.257,33.308,27.213l0.084,0.043
		c10.628-1.72,23.658,6.33,19.138,18.424c-3.829,11.766-18.57,11.4-26.101,3.554l-2.808,5.842c7.204,3.839,15.022,6.25,23.33,5.64
		c1.508-1.352,4.521-4.046,6.024-5.354c6.519,14.507,6.191,34.813-11.316,41.35l3.052,0.816c-7.291-0.206-15.269-0.121-21.05-5.351
		c-6.722-9.768-12.013-20.557-19.956-29.46c0.061-0.018,0.139-0.04,0.202-0.058c-1.597-0.94-2.697-2.477-2.791-4.303
		c-13.258,3.936-26.727,8.215-40.333,11.682c-2.154,2.676-4.501,5.123-7.003,7.24c-0.157,0.133-0.319,0.258-0.477,0.389
		c-6.017,8.814-14.249,15.889-25.278,17.704c-0.256,0.042-0.512,0.068-0.768,0.099c-2.121,1.308-4.354,2.454-6.899,3.234
		c-5.017,1.538-11.604-0.867-13.996-5.695c-2.749-5.548-2.581-11.064-0.81-16.26c-6.817-0.406-13.643-1.379-20.467-3.082
		c-8.958-1.064-18.042-0.939-27.037-1.024c13.601,4.945,28.297,2.62,42.431,4.495c-3.222,10.749,3.745,20.064,4.071,30.563
		c5.616,0.49,11.684,1.633,16.53-2.042c19.142-9.068,40.764-18.47,50.946-38.407c11.891,1.633,24.147,3.514,35.018,8.948
		c4.686,15.282,16.53,26.106,30.257,33.459c6.105,1.188,16.244-1.059,12.135-9.72c16.943-10.299,17.591-33.789,7.368-49.151
		c0.735-5.029,1.469-10.096,2.24-15.117C231.426,198.105,247.877,191.936,259.523,179.313z M223.646,158.514
		c1.794,14.793-21.743,20.595-27.278,6.781c-6.275-10.702,8.752-15.81,14.453-22.103
		C216.077,147.115,224.141,150.549,223.646,158.514z M135.081,158.638c0.207-1.957,0.611-5.967,0.813-7.967
		c-2.81,2.204-5.618,4.412-8.385,6.619c-0.294-0.091-0.585-0.19-0.877-0.289c-1.399,0.563-2.991,0.893-4.799,0.893
		c-0.056,0-0.108-0.008-0.164-0.008c-0.058,0.001-0.111,0.008-0.17,0.008c-0.115,0-0.221-0.014-0.334-0.017
		c-0.113,0.003-0.218,0.017-0.333,0.017c-2.244,0-4.161-0.501-5.774-1.341c-5.035-0.623-9.657-2.744-13.406-5.885
		c-0.637-0.425-1.27-0.895-1.917-1.404c-1.299-1.023-2.535-2.113-3.73-3.245c-1.462-0.837-2.653-1.966-3.564-3.286
		c-1.227-0.931-2.385-1.935-3.34-3.099c-1.63-1.987-2.804-3.458-3.76-4.852c-1.441-1.143-2.541-2.61-3.288-4.252
		c-3.476-3.431-6.018-7.805-7.144-12.679c-0.581-1.293-1.105-2.622-1.511-4.032c-0.385-1.34-0.628-2.689-0.804-4.044
		c-0.22-0.321-0.437-0.643-0.68-0.961c-0.475-0.622-1.035-1.215-1.617-1.728c-0.476-0.137-0.93-0.308-1.372-0.505
		c-2.17-0.348-4.322-0.809-6.449-1.396c-12.174,0-23.389-5.434-33.68-11.548c7.664-8.178,17.611-13.261,27.512-18.17
		c-0.096-0.336-0.184-0.672-0.244-1.015c-0.334-0.036-0.668-0.073-1.003-0.11c-2.333-0.25-4.491-0.605-6.631-1.479
		c0.037,0.061,0.079,0.119,0.116,0.18c-10.466-1.102-17.914-11.603-22.556-19.528c10.615-6.845,26.246-7.515,39.225-4.293
		c1.733,0.063,3.504,0.329,5.276,0.746c2.22,0.07,4.374,0.458,6.48,1.045c0.092-0.014,0.184-0.031,0.277-0.042
		c-0.67,0.079,1.23-0.396,1.459-0.482c0.307-0.115,0.479-0.175,0.567-0.203c0.097-0.049,0.243-0.122,0.474-0.231
		c0.388-0.185,0.773-0.376,1.158-0.566c0.324-1.051,0.948-1.994,1.873-2.639c5.239-9.503,12.374-17.935,21.353-24.387
		c24.962-15.076,58.434-16.424,82.867,0.531c23.494,14.833,35.917,43.309,33.839,70.727c-2.937,20.631-13.601,39.509-29.768,52.541
		c-15.963-0.41-32.576-1.552-46.339-10.623c-2.077,4.25-1.262,7.274,2.443,9.112c8.632,4.165,18.286,5.229,27.528,7.435
		C163.625,161.66,148.48,159.208,135.081,158.638z M182.522,170.363c-5.706,1.393-7.818-0.694-6.312-6.25
		C181.949,162.808,184.03,164.893,182.522,170.363z"/>
	<path opacity="0.4" fill="#FFFFFF" stroke="#000000" stroke-width="3" stroke-miterlimit="10" d="M126.086,16.739
		c23.977-4.084,49.88,3.228,66.778,21.083c15.226,14.422,21.703,35.587,21.986,56.139c-29.927,1.755-60.259,3.309-89.703-3.679
		c0.285,6.865,0.567,13.73,1.017,20.597C102.914,84.889,105.398,43.459,126.086,16.739z"/>
	<path fill="#FACD9C" d="M125.147,90.282c29.443,6.987,59.775,5.434,89.703,3.679l5.99-0.244
		c-2.935,20.631-13.601,39.509-29.768,52.541c-15.963-0.41-32.576-1.552-46.339-10.623c-7.734-6.945-13.359-15.813-18.569-24.758
		C125.714,104.012,125.433,97.146,125.147,90.282 M168.473,108.424c-13.602,2.289-8.875,23.9,4.274,20.551
		C185.695,126.072,180.891,105.645,168.473,108.424z"/>
	<path fill="#FFFFFF" stroke="#000000" stroke-width="3" stroke-miterlimit="10" d="M58.811,74.226
		c0.609,1.348,1.795,3.964,2.403,5.269c-5.907,3.759-11.362,8.095-16.33,12.953c6.756,3.677,14.011,6.945,19.381,12.709
		c-12.867,0.57-24.674-5.109-35.467-11.522C37.108,84.768,48.103,79.537,58.811,74.226z"/>
	<path fill="#FCFCFA" d="M176.211,164.113c5.736-1.306,7.819,0.779,6.312,6.25C176.816,171.756,174.704,169.669,176.211,164.113z"/>
	<path fill="#FCFCFA" d="M157.438,170.077c15.35-1.839,31.151,12.257,33.309,27.213
		C179.633,188.219,169.534,177.924,157.438,170.077z"/>
	<path fill="#0B0200" d="M168.473,108.424c12.418-2.779,17.223,17.648,4.274,20.551
		C159.598,132.324,154.871,110.713,168.473,108.424z"/>
	<path fill="#FACC9B" d="M196.368,165.295c-6.275-10.702,8.752-15.81,14.455-22.103c5.255,3.923,13.317,7.357,12.825,15.321
		C225.44,173.308,201.903,179.108,196.368,165.295z"/>
	<path fill="#F4CA9D" stroke="#000000" stroke-width="3" stroke-miterlimit="10" d="M183.866,219.311
		c-2.2-8.375,0.164-16.504,6.963-21.978c10.627-1.72,23.658,6.329,19.138,18.425C206.138,227.522,191.397,227.157,183.866,219.311z"
		/>
	<path opacity="0.2" fill="#FFFFFF" stroke="#000000" stroke-width="3" stroke-miterlimit="10" d="M179.142,221.068l4.725-1.758
		l-2.808,5.843c7.204,3.839,15.023,6.25,23.331,5.64c6.885,12.051,2.318,25.579-5.293,35.996l3.052,0.816
		c-7.291-0.206-15.269-0.121-21.05-5.351c-6.722-9.768-12.012-20.557-19.956-29.46c2.284-0.65,6.879-2.002,9.165-2.657
		c-1.268-0.896-3.749-2.74-5.012-3.676C169.9,224.707,174.496,222.825,179.142,221.068z"/>
	<path fill="#878787" stroke="#000000" stroke-width="3" stroke-miterlimit="10" d="M157.762,216.657
		c2.651-1.104,8.025-3.27,10.67-4.37c2.036-0.818,6.11-2.494,8.145-3.313c0.653,3.026,1.912,9.073,2.565,12.095
		c-4.646,1.757-9.241,3.638-13.846,5.394c-39.582,11.36-81.195,27.66-122.772,17.283c8.268-2.981,16.491-6.17,23.825-11.033
		l-0.494,1.27l-1.914,4.943c18.243-2.536,36.486-5.189,54.326-9.893c6.756-1.838,13.472-3.837,20.233-5.839
		C144.975,221.148,151.41,219.025,157.762,216.657z"/>
</g>
<path d="M69.5,50.496c0,0-7.47,23.989-5.235,54.661l7.651,3.655c0,0-4.933-37.003,8.992-59.327L69.5,50.496z"/>
<path d="M145.976,144.037c0,0-27.726-18.474-24.976-53.755l-0.192-7.532c0,0,37.124,13.75,100.033,5.75l0.221-0.031l-0.221,5.248
	c0,0-71.507,9.617-94.174-2.383c0,0,8.334,42.167,23.167,47.833L145.976,144.037z"/>
<path opacity="0.2" fill="#FFFFFF" stroke="#000000" stroke-width="3" stroke-miterlimit="10" d="M100,163.736
	c0,0-17.335,24.885,10.833,55.574c0,0,23.167,0.373,37.667-6.469c0,0-29.789-11.512-32.395-42.927
	C116.105,169.915,106.106,159.288,100,163.736z"/>
</svg>
