<?xml version="1.0" encoding="utf-8"?>
<!-- Generator: Adobe Illustrator 16.0.0, SVG Export Plug-In . SVG Version: 6.00 Build 0)  -->
<!DOCTYPE svg PUBLIC "-//W3C//DTD SVG 1.1//EN" "http://www.w3.org/Graphics/SVG/1.1/DTD/svg11.dtd">
<svg version="1.1" id="Layer_1" xmlns="http://www.w3.org/2000/svg" xmlns:xlink="http://www.w3.org/1999/xlink" x="0px" y="0px"
	 width="600px" height="150px" viewBox="0 0 600 150" enable-background="new 0 0 600 150" xml:space="preserve">
<path fill="#3B1951" d="M307.532,21.63c0,0,34.634,3.219,40.801,2.294c0,0-4.108-6.666-7.472-6.545
	C337.499,17.5,307.532,21.63,307.532,21.63z"/>
<path fill="#DAE2E5" d="M336.289,13.735c0,0,1.682,0.241,2.091,0.762s-0.761,1.327-0.761,1.327L336.289,13.735z"/>
<path fill="#FBE1FF" d="M305.734,15.556c0,0,0.881-1.597,1.588-1.726c0.707-0.128,2.008,1.925,2.008,1.925
	S306.781,16.306,305.734,15.556z"/>
<g>
	<path fill="none" d="M16.677,57.412c0.003,0,0.005,0,0.008,0c0.417-0.028,0.977-0.692,1.553-1.598
		C17.708,56.592,17.177,57.173,16.677,57.412z"/>
	<path fill="#545368" d="M20.978,54.167c0-0.002,0.006-0.016,0.006-0.016l0,0C20.981,54.157,20.979,54.162,20.978,54.167z"/>
	<path fill="#3B1951" d="M46.94,55.443c-1.186-2.118-11.879-4.123-11.985-5.327c-0.002-0.023-0.016-0.049-0.025-0.075
		c0.111,2.69-0.215,2.376-0.215,2.376s-6.162,3.177-9.4,0.935c-3.238-2.243-4.332,0.733-4.332,0.733s1.475-1.201,1.278,0.667
		c-0.197,1.869,5.646,3.084,5.646,3.084c-0.479,0.417-3.27,0.3-5.957,0.078l0,0c0,0,29.394,5.905,37.523,2.402
		C67.603,56.813,48.125,57.561,46.94,55.443z"/>
	<path fill="#FBE1FF" d="M380.372,23.925c1.247,1.615,2.851,2.902,4.194,4.431c-0.028,1.137-0.379,2.234-0.627,3.338
		c1.748,0.402,3.535,0.425,5.314,0.397c0.363-0.513,0.727-1.029,1.092-1.534c-0.459-0.65-0.919-1.293-1.379-1.938
		c2.6-0.431,5.229-0.885,7.604-2.092c-1.328-2.092-3.195-3.729-5.188-5.148c0.155-0.78,0.322-1.558,0.499-2.334l0.161-0.724
		c-2.769,0.213-5.465-0.345-8.144-0.942c-0.78,0.972-1.32,2.12-2.184,3.022c-1.185,0.799-2.578,1.195-3.773,1.982
		c-0.719,0.827-0.127,1.971-0.104,2.936c-0.688,0.978-1.54,1.886-1.959,3.029c-0.162,1.632,1.177,2.896,2.431,3.723
		c1.211-0.413,2.418-0.867,3.613-1.345C380.947,28.584,380.311,26.292,380.372,23.925z"/>
	<path fill="#73527F" d="M396.57,26.528c-2.375,1.207-5.006,1.661-7.604,2.092c0.46,0.645,0.92,1.287,1.379,1.938
		c-0.367,0.505-0.729,1.021-1.092,1.534c4.155,0.274,8.632,0.005,12.271-2.208c1.751-1.108,0.171-3.251-0.736-4.39
		c-0.811-0.73-1.706-1.345-2.557-2.012c-0.392-1.264-0.528-2.758-1.587-3.677c-1.205-0.931-2.765-1.241-4.24-1.407
		c-0.133,0.166-0.391,0.488-0.523,0.648c-0.177,0.776-0.344,1.553-0.498,2.333C393.375,22.799,395.242,24.436,396.57,26.528z"/>
	<path fill="#73527F" d="M383.939,31.694c0.248-1.104,0.599-2.201,0.627-3.339c-1.346-1.528-2.947-2.815-4.194-4.431
		c-0.063,2.368,0.575,4.66,1.551,6.803c-1.194,0.478-2.401,0.932-3.612,1.346l0.021,0.006
		C380.212,32.222,382.096,32.079,383.939,31.694z"/>
	<path fill="#3B1951" d="M408.648,28.59c-1.207-3.147-5.098-2.85-7.86-3.097c0.907,1.138,2.487,3.281,0.734,4.39
		c-3.638,2.213-8.112,2.482-12.269,2.208c-1.781,0.027-3.568,0.005-5.314-0.397c-1.844,0.385-3.729,0.529-5.608,0.385
		c0.5,0.558,1.121,1.069,1.901,1.149c3.442,0.604,7.033,0.851,10.459,0.007c1.466,0.396,2.941,0.821,4.477,0.803
		c4.229-0.011,8.458-0.166,12.669-0.568c1.92-0.218,3.933-0.419,5.627-1.437c-0.013-0.224-0.04-0.666-0.059-0.885
		C412.057,29.912,410.269,29.367,408.648,28.59z"/>
	<path fill="#D300EA" d="M546.354,42.932l0.342-1.499c-5.317,1.131-10.576,3.11-14.269,7.296c2.22,1.498,4.453,2.983,6.73,4.425
		C542.945,50.835,546.168,47.653,546.354,42.932z"/>
	<path fill="#73527F" d="M548.445,45.081c-0.523-0.538-1.57-1.611-2.092-2.149c-0.188,4.722-3.408,7.903-7.196,10.222
		c2.248,0.339,4.48,0.764,6.716,1.201c2.643-1.484,5.287-2.997,8.044-4.298C552.896,47.611,550.777,46.141,548.445,45.081z"/>
	<path fill="#3B1951" d="M553.917,50.056c-2.757,1.302-5.401,2.814-8.044,4.298c9.019,2.319,18.575,5.062,27.837,2.347
		C567.404,53.932,561.185,48.686,553.917,50.056z"/>
	<path fill="#FBE1FF" d="M16.677,57.412c0.5-0.239,1.03-0.82,1.561-1.599c0.253-0.398,0.51-0.84,0.76-1.3l-2.924,0.222l5.508-7.214
		c0.056-0.09,0.118-0.166,0.183-0.239l2.174-2.848l0,0c0.745-1.194,1.299-2.262,1.308-2.278c-0.511-0.267-1.313-0.359-2.519-0.189
		c-7.333,1.035-10.333,7.504-10.333,7.504s0-3.799,2.13,5.47c0.448,1.948,1.071,2.657,1.774,2.579
		C16.029,57.502,15.854,57.469,16.677,57.412z"/>
	<path fill="#FBE1FF" d="M21.582,47.521l-5.508,7.214l2.924-0.222c1.034-1.905,1.94-0.253,1.979-0.346
		c0.002-0.005,0.004-0.01,0.006-0.016C20.983,54.148,20.461,49.32,21.582,47.521z"/>
	<path fill="#E1E1F1" d="M23.938,44.434L23.938,44.434l-2.174,2.848c0.037-0.042,0.069-0.093,0.108-0.129
		C22.555,46.527,23.313,45.437,23.938,44.434z"/>
	<path fill="#73527F" d="M25.563,45.13c2.918,1.27,8.775,3.923,9.146,4.912c-0.031-0.774-0.094-1.488-0.211-2.034
		c-0.531-2.469-9.25-5.854-9.25-5.854s-0.001,0.002-0.001,0.003C26.235,42.674,26.105,43.859,25.563,45.13z"/>
	<path fill="#73527F" d="M25.563,45.13c-0.881,2.061-2.836,4.341-2.836,4.341s-0.716,2.186-1.743,4.68l0,0
		c0,0,1.076-2.962,4.263-0.683c3.187,2.279,9.25-0.95,9.25-0.95s0.32,0.257,0.211-2.478C34.338,49.053,28.481,46.4,25.563,45.13z"/>
	<path fill="#797389" d="M21.582,47.521l0.183-0.239C21.7,47.355,21.638,47.431,21.582,47.521z"/>
	<path fill="#73527F" d="M25.563,45.13c0.543-1.271,0.673-2.456-0.317-2.973c-0.008,0.016-0.563,1.084-1.308,2.278
		C23.938,44.434,24.586,44.705,25.563,45.13z"/>
	<path fill="#73527F" d="M20.983,54.151c1.026-2.495,1.743-4.68,1.743-4.68s1.956-2.28,2.836-4.341
		c-0.976-0.424-1.624-0.695-1.625-0.695c-0.625,1.003-1.383,2.092-2.065,2.719c-0.04,0.036-0.072,0.086-0.108,0.129l-0.183,0.239
		C20.461,49.32,20.983,54.148,20.983,54.151z"/>
	<path fill="#73527F" d="M18.238,55.813c-0.577,0.906-1.136,1.57-1.553,1.598c-0.003,0-0.005,0-0.008,0
		c-0.129,0.062-0.255,0.094-0.38,0.108c0.175,0.011,0.388,0.016,0.388,0.016s2.573,0.341,5.25,0.571l-2.917-3.568
		C18.76,55.002,18.5,55.43,18.238,55.813z"/>
	<path fill="#73527F" d="M27.797,58.027c0,0-5.75-1.234-5.556-3.134c0.194-1.9-1.257-0.742-1.257-0.742s-0.006,0.014-0.006,0.016
		c-0.579,1.405-1.256-0.894-1.959,0.371l2.917,3.568C24.58,58.333,27.326,58.451,27.797,58.027z"/>
	<path fill="#797389" d="M18.238,55.813c0.261-0.383,0.522-0.811,0.78-1.275l-0.021-0.025
		C18.749,54.973,18.492,55.415,18.238,55.813z"/>
	<path fill="#797389" d="M16.297,57.52c0.125-0.014,0.251-0.046,0.38-0.108C15.854,57.469,16.029,57.502,16.297,57.52z"/>
	<path fill="#73527F" d="M19.019,54.538c0.703-1.265,1.38,1.034,1.959-0.371c-0.039,0.093-0.945-1.56-1.979,0.346L19.019,54.538z"/>
</g>
<path fill="#FBE1FF" d="M336.91,14.497c-0.943,0.347-1.879,0.694-2.846,0.975c-8.117,1.853-16.736,1.636-24.924,0.251
	c-1.142,0.061-2.277-0.005-3.406-0.167c-1.426,1.417-2.769,2.917-3.685,4.632c0.238,0.067,0.703,0.201,0.935,0.269
	c4.873-0.134,9.697,0.661,14.568,0.617c7.168,0.123,15.2-1.031,20.065-6.066C337.438,14.878,337.084,14.625,336.91,14.497z"/>
<path fill="#73527F" d="M343,19.487c-1.729-1.596-3.336-3.299-4.723-5.125c-0.162,0.157-0.498,0.481-0.658,0.645
	c-4.865,5.035-12.896,6.188-20.064,6.066c-4.871,0.044-9.697-0.751-14.568-0.617c0.923,0.286,1.839,0.566,2.763,0.846
	c1.069,0.185,2.142,0.393,3.205,0.611c7.563,0.554,15.183,0.722,22.762,0.38c3.858-0.107,7.589-1.003,11.317-1.788
	C343.02,20.254,343.006,19.745,343,19.487z"/>
<g>
	<path fill="#FBE1FF" d="M336.289,13.735c-9.438-2.207-19.49-1.658-28.967,0.096c-0.033,0.482-0.059,0.968-0.092,1.456
		c0.479,0.106,1.434,0.331,1.91,0.437c1.941-1.042,4.311-0.543,6.459-0.779c3.303-0.28,6.611,0.084,9.922-0.022
		c2.852-0.034,5.793-0.303,8.543,0.549c0.967-0.28,1.901-0.628,2.846-0.975C336.755,14.307,336.443,13.926,336.289,13.735z"/>
</g>
<g>
	<path fill="#524E6B" d="M334.064,15.472c-2.748-0.852-5.691-0.583-8.543-0.549c-3.31,0.106-6.619-0.258-9.922,0.022
		c-2.148,0.236-4.518-0.263-6.459,0.779C317.328,17.107,325.947,17.325,334.064,15.472z"/>
</g>
<g>
	<path fill="#442F54" d="M204.295,23.008c-3.072-0.885-6.14-2.079-9.082-3.876c0.109,0.928,0.331,2.767,0.453,3.676
		c-7.665,3.669-15.294,7.742-23.492,8.994c-16.061,2.929-32.395,4.025-48.756,3.715c25.302,8.281,51.405,11.051,76.392,5.709
		c5.75-1.095,11.23-3.819,16.119-7.974C214.131,25.929,208.829,24.253,204.295,23.008z"/>
</g>
<path fill="#F3CAFC" d="M186.628,5.948c3.911-0.284,5.603,3.4,6.95,6.401c1.614,3.62,3.209,7.246,4.899,10.835
	c-0.406,0.145-1.24,0.441-1.653,0.598c-6.12-1.936-12.489-0.093-18.742-0.376c-10.083-0.288-20.499-0.834-29.815-5.076
	c-4.159-2.004-9.036-3.523-11.686-7.577c3.416,1.408,7.015,2.51,10.747,2.486c11.583,0.168,23.197-0.537,34.603-2.612
	c2.858-0.508,5.542-1.67,8.189-2.817c-16.831-3.628-34.044,0.185-50.869,2.025C154.584,5.63,170.826,4.883,186.628,5.948z"/>
<path fill="#674E75" d="M129.261,22.256c18.478,5.611,38.034,6.739,57.192,5.185c-15.914,7.025-33.399,11.619-50.901,10.805
	c-4.994-0.559-11.503-0.272-14.256-5.414C120.993,27.918,126.182,25.264,129.261,22.256z"/>
<path fill="#9C77AF" d="M178.083,23.406c6.253,0.283,12.622-1.56,18.742,0.376c-3.435,1.276-6.886,2.514-10.372,3.659
	c-19.158,1.555-38.714,0.426-57.192-5.185c1.84-2.023,3.423-4.27,4.886-6.555c0.873-1.632,1.646-3.292,2.436-4.948
	c2.65,4.054,7.526,5.572,11.686,7.577C157.584,22.572,168,23.118,178.083,23.406z"/>
<path fill="#526172" d="M139.251,9.835c16.825-1.84,34.039-5.653,50.869-2.025c-2.647,1.147-5.331,2.309-8.189,2.817
	c-11.406,2.075-23.021,2.78-34.603,2.612c-3.732,0.024-7.331-1.078-10.747-2.486C137.246,10.524,138.587,10.066,139.251,9.835z"/>
</svg>
