<?xml version="1.0" encoding="utf-8"?>
<!-- Generator: Adobe Illustrator 16.0.0, SVG Export Plug-In . SVG Version: 6.00 Build 0)  -->
<!DOCTYPE svg PUBLIC "-//W3C//DTD SVG 1.1//EN" "http://www.w3.org/Graphics/SVG/1.1/DTD/svg11.dtd">
<svg version="1.1" id="Layer_1" xmlns="http://www.w3.org/2000/svg" xmlns:xlink="http://www.w3.org/1999/xlink" x="0px" y="0px"
	 width="600px" height="150px" viewBox="0 0 600 150" enable-background="new 0 0 600 150" xml:space="preserve">
<path fill="#FAE3FF" d="M430.679,17.623c2.898-1.005,6.151-0.237,8.966-1.529c-0.396-4.53-3.86-7.842-6.481-11.257
	c-4.918,0.161-9.396-2.028-13.689-4.132c-2.704,2.636-5.248,5.526-7.021,8.874c-0.99,2.763-1.175,5.78-1.032,8.696
	c1.844,1.318,4.032,2.053,5.984,3.195c2.425,1.368,5.003,2.974,7.899,2.738c0.188-0.321,0.552-0.972,0.736-1.293
	C427.13,20.843,428.354,18.502,430.679,17.623z"/>
<path fill="#885399" d="M447.252,14.438c-0.88-0.524-1.784-0.964-2.664-1.479c-2.561-1.056-1.994-4.597-4.148-6.067
	c-2.13-1.462-4.801-1.666-7.276-2.054c2.621,3.415,6.085,6.727,6.481,11.257c-2.813,1.292-6.066,0.524-8.966,1.529
	c-2.325,0.879-3.549,3.22-4.64,5.291l0.144,0.667c1.674,1.334,4.227,0.38,6.237,0.702c5.848-0.787,12.271-0.98,17.324-4.335
	C450.343,17.741,448.569,15.95,447.252,14.438z"/>
<path fill="#3B1951" d="M462.538,21.096c0.811-0.009,2.434-0.025,3.236-0.034c-1.563-0.861-3.202-1.571-4.852-2.257
	c-0.87-1.14-1.471-2.737-3.018-3.109c-3.422-1.15-7.082-1.243-10.656-1.259c1.318,1.512,3.093,3.304,2.494,5.51
	c-5.054,3.355-11.478,3.549-17.326,4.335c6.085,3.119,13.032,1.741,19.565,1.732C454.636,23.032,458.169,19.583,462.538,21.096z"/>
<path fill="#3B1951" d="M479.304,27.84c-3.625,1.335-7.105,3.051-10.394,5.096c4.42-0.076,8.848-0.549,13.251,0.052
	c3.854,0.642,7.91-0.331,11.079-2.604c-4.36-1.58-8.991-2.062-13.557-2.695L479.304,27.84z"/>
<path fill="#D300EA" d="M470.735,27.452c0.769-2.401,1.268-4.885,2.181-7.234c-3.481,0.203-6.889,1.825-10.378,0.878
	c-4.369-1.513-7.902,1.935-10.555,4.918c4.25,3.22,9.728,3.448,14.764,4.454C468.259,29.826,470.194,29.209,470.735,27.452z"/>
<path fill="#885399" d="M472.916,20.218c-0.913,2.349-1.412,4.834-2.181,7.234c-0.541,1.758-2.477,2.375-3.988,3.017
	c0.709,0.828,1.437,1.648,2.163,2.467c3.287-2.044,6.769-3.76,10.394-5.096C476.067,26.361,474.767,22.989,472.916,20.218z"/>
<g>
	<path fill="#885399" d="M420.689,17.97c-0.192,0.135-0.422,0.231-0.674,0.298h0.001c0,0,4.753,1.27,6.269,0
		c0,0,0.086,0.319,3.633,0.282c0,0,1.082-2.538-1.211-3.753c-2.293-1.215-5.74,1.907-7.191-1.625
		c-0.179-0.433-0.404-0.761-0.664-1.008c-1.327,0.592-4.186,0.757-4.186,0.757C419.364,13.798,422.878,16.431,420.689,17.97z"/>
	<path fill="#FAE3FF" d="M22.714,9.385c1.078,1.396,2.464,2.509,3.626,3.831c-0.024,0.983-0.328,1.932-0.542,2.886
		c1.511,0.347,3.055,0.367,4.595,0.343c0.313-0.443,0.626-0.89,0.944-1.327c-0.397-0.562-0.795-1.118-1.192-1.674
		c2.246-0.373,4.521-0.765,6.572-1.809c-1.148-1.808-2.763-3.223-4.485-4.451c0.134-0.675,0.278-1.346,0.432-2.018l0.139-0.625
		c-2.394,0.184-4.725-0.298-7.039-0.815c-0.676,0.839-1.143,1.833-1.888,2.613c-1.024,0.69-2.23,1.033-3.264,1.714
		c-0.621,0.715-0.11,1.704-0.089,2.538c-0.596,0.845-1.332,1.63-1.694,2.618c-0.139,1.412,1.019,2.504,2.102,3.219
		c1.048-0.357,2.091-0.75,3.124-1.163C23.211,13.414,22.659,11.431,22.714,9.385z"/>
	<path fill="#885399" d="M36.717,11.635c-2.052,1.044-4.327,1.436-6.572,1.809c0.398,0.557,0.795,1.112,1.192,1.674
		c-0.318,0.437-0.631,0.884-0.944,1.327c3.591,0.238,7.462,0.004,10.606-1.908c1.515-0.959,0.149-2.811-0.636-3.795
		c-0.701-0.631-1.475-1.163-2.21-1.739c-0.338-1.093-0.457-2.385-1.372-3.179c-1.043-0.804-2.39-1.073-3.666-1.216
		c-0.114,0.144-0.338,0.422-0.452,0.561c-0.154,0.671-0.298,1.342-0.432,2.018C33.955,8.412,35.57,9.827,36.717,11.635z"/>
	<path fill="#885399" d="M25.798,16.101c0.214-0.955,0.517-1.903,0.542-2.886c-1.162-1.322-2.548-2.434-3.626-3.831
		c-0.055,2.046,0.497,4.029,1.341,5.881c-1.033,0.413-2.076,0.806-3.124,1.163l0.02,0.005
		C22.574,16.558,24.204,16.434,25.798,16.101z"/>
	<path fill="#3B1951" d="M47.159,13.418c-1.043-2.722-4.406-2.464-6.796-2.677c0.785,0.984,2.151,2.836,0.636,3.795
		c-3.145,1.913-7.015,2.146-10.606,1.908c-1.54,0.024-3.084,0.004-4.595-0.343c-1.594,0.333-3.224,0.457-4.849,0.333
		c0.433,0.482,0.969,0.924,1.645,0.994c2.976,0.521,6.081,0.735,9.041,0.005c1.267,0.343,2.544,0.711,3.87,0.695
		c3.656-0.01,7.313-0.144,10.953-0.491c1.66-0.188,3.398-0.362,4.864-1.242c-0.01-0.194-0.035-0.577-0.05-0.765
		C50.104,14.561,48.56,14.089,47.159,13.418z"/>
	<path fill="#D300EA" d="M235.771,8.512c-1.642,0.353-3.292,0.717-4.971,0.942c-0.308,0.508-0.926,1.524-1.243,2.033
		c1.152,0.735,2.223,1.941,3.71,1.85c0.626-0.01,1.887-0.036,2.521-0.046C235.762,11.695,235.752,10.108,235.771,8.512z"/>
	<path fill="#D300EA" d="M229.285,6.217l0.254-1.279c-4.1,0.272-8.672-0.734-12.255,1.796c2.875,1.788,6.322,1.869,9.587,2.105
		C227.842,8.131,228.686,7.26,229.285,6.217z"/>
	<path fill="#3B1951" d="M226.872,8.839c1.306,0.245,2.613,0.499,3.928,0.616c1.678-0.227,3.329-0.589,4.971-0.942
		c-0.018,1.596-0.009,3.183,0.019,4.78c-0.635,0.01-1.896,0.036-2.521,0.046c5.143,1.233,11.012,2.231,15.91-0.336
		c-3.982-1.814-8.49-1.451-12.509-3.075c2.104-0.435,4.336-0.653,6.177-1.869c-3.411-0.571-6.867-0.726-10.305-1.043
		c-1.006-0.362-2.639-3.074-3.256-0.798C228.686,7.26,227.842,8.131,226.872,8.839z"/>
	<path fill="#885399" d="M415.397,17.611L415.397,17.611c1.587,0.548,3.399,0.977,4.618,0.656l-4.618-5.346
		c0,0,3.592-2.525,5.451-0.757c0.565-0.251,0.854-0.581,0.525-1.008c-1.104-1.431-2.702-2.896-2.702-2.896l-7.421,2.339
		C410.326,14.155,415.397,17.611,415.397,17.611z"/>
	<path fill="#E1E1F1" d="M415.397,12.921l4.618,5.346c0.251-0.067,0.479-0.163,0.672-0.298c2.189-1.538-1.324-4.172-4.021-5.048
		c0,0,2.857-0.166,4.184-0.758C418.989,10.396,415.397,12.921,415.397,12.921z"/>
	<path fill="#885399" d="M412.099,16.22c0,0,1.503,0.771,3.3,1.391l0,0c0,0-5.071-3.456-4.146-7.01l-0.538,0.169L412.099,16.22z"/>
</g>
</svg>
