<?xml version="1.0" encoding="utf-8"?>
<!-- Generator: Adobe Illustrator 16.0.0, SVG Export Plug-In . SVG Version: 6.00 Build 0)  -->
<!DOCTYPE svg PUBLIC "-//W3C//DTD SVG 1.1//EN" "http://www.w3.org/Graphics/SVG/1.1/DTD/svg11.dtd">
<svg version="1.1" id="Layer_1" xmlns="http://www.w3.org/2000/svg" xmlns:xlink="http://www.w3.org/1999/xlink" x="0px" y="0px"
	 width="54px" height="36px" viewBox="0 0 54 36" enable-background="new 0 0 54 36" xml:space="preserve">
<g>
	<polygon fill="#645368" points="45.458,16.292 46.125,12.688 45.188,9.25 37.688,13.938 28.938,15.316 24.5,8.313 21.25,10.938 
		19.745,14.438 12.313,12.25 0,14.813 0,36 54,36 54,12.768 49.167,15.875 	"/>
</g>
<path fill="#FF4DD5" d="M54,22.266c0,0-13.309,1.15-12.061,3.412c1.25,2.267,0.68,9.989-4.727,8.589s-8.99-6.682-5.161-3.773
	c3.83,2.91,0.037,3.557,4.242,5.353c4.205,1.797,8.742-7.937,7.927-10.093c-0.814-2.156,5.215-2.732,7.172-2.191
	c1.955,0.538,2.606,0.752,2.606,0.752L54,22.266L54,22.266z"/>
<path fill="#FF4DD5" d="M1.333,20.803c0,0,6.468,3.101,6.724,4.851s1.588,3,5.672,2.417s3.5-5.993,7.917-5.122s9.74,2.75,9.74,2.75
	l0.488,0.884c0,0-10.396-3.822-11.063-3.084s-7.417,8.278-12,4.717c-4.583-3.561,3.359-1.209-7.695-6.886L0,24.167v-2.433"/>
</svg>
