<?xml version="1.0" encoding="utf-8"?>
<!-- Generator: Adobe Illustrator 16.0.0, SVG Export Plug-In . SVG Version: 6.00 Build 0)  -->
<!DOCTYPE svg PUBLIC "-//W3C//DTD SVG 1.1//EN" "http://www.w3.org/Graphics/SVG/1.1/DTD/svg11.dtd">
<svg version="1.1" id="Layer_1" xmlns="http://www.w3.org/2000/svg" xmlns:xlink="http://www.w3.org/1999/xlink" x="0px" y="0px"
	 width="600px" height="150px" viewBox="0 0 600 150" enable-background="new 0 0 600 150" xml:space="preserve">
<path fill="#DAE2E5" d="M375.316,10.295c0,0,4.033,0.665,5.015,2.105s-1.826,3.667-1.826,3.667L375.316,10.295z"/>
<path fill="#DAE2E5" d="M302.014,15.325c0,0,2.114-4.414,3.81-4.768c1.694-0.354,4.817,5.319,4.817,5.319
	S304.525,17.4,302.014,15.325z"/>
<g>
	<path fill="none" d="M80.511,55.65c0.003,0,0.005,0,0.008,0c0.417-0.028,0.977-0.692,1.553-1.598
		C81.541,54.83,81.011,55.411,80.511,55.65z"/>
	<path fill="none" d="M454.42,32.194c0.158,0.008,0.304,0.009,0.437,0.004C454.72,32.192,454.574,32.191,454.42,32.194z"/>
	<path fill="#545368" d="M84.811,52.405c0-0.002,0.006-0.016,0.006-0.016l0,0C84.815,52.395,84.813,52.4,84.811,52.405z"/>
	<path fill="#412043" d="M110.774,53.681c-1.186-2.118-11.879-4.123-11.985-5.327c-0.002-0.023-0.016-0.049-0.025-0.075
		c0.111,2.69-0.215,2.376-0.215,2.376s-6.162,3.177-9.4,0.935c-3.238-2.243-4.332,0.733-4.332,0.733s1.475-1.201,1.278,0.667
		c-0.197,1.869,5.646,3.084,5.646,3.084c-0.479,0.417-3.27,0.3-5.957,0.078l0,0c0,0,29.394,5.905,37.523,2.402
		C131.436,55.051,111.959,55.799,110.774,53.681z"/>
	<path fill="#F4DEFF" d="M117.375,21.104c2.17,2.811,4.959,5.051,7.299,7.711c-0.049,1.979-0.659,3.889-1.09,5.81
		c3.041,0.7,6.15,0.739,9.25,0.69c0.631-0.891,1.261-1.791,1.9-2.67c-0.8-1.131-1.6-2.25-2.4-3.371
		c4.521-0.75,9.101-1.539,13.23-3.64c-2.311-3.64-5.561-6.489-9.029-8.96c0.27-1.359,0.56-2.71,0.869-4.061l0.28-1.26
		c-4.819,0.37-9.511-0.6-14.17-1.64c-1.36,1.69-2.3,3.69-3.8,5.26c-2.061,1.39-4.49,2.08-6.57,3.45
		c-1.25,1.439-0.221,3.43-0.18,5.109c-1.2,1.701-2.68,3.281-3.41,5.271c-0.28,2.841,2.05,5.04,4.23,6.479
		c2.109-0.719,4.209-1.51,6.289-2.34C118.375,29.214,117.265,25.224,117.375,21.104z"/>
	<path fill="#885399" d="M145.564,25.634c-4.13,2.101-8.71,2.89-13.23,3.64c0.801,1.121,1.601,2.24,2.4,3.371
		c-0.64,0.879-1.27,1.779-1.9,2.67c7.23,0.479,15.021,0.01,21.351-3.841c3.05-1.93,0.3-5.659-1.28-7.64
		c-1.41-1.27-2.97-2.34-4.449-3.5c-0.681-2.2-0.92-4.801-2.761-6.4c-2.1-1.619-4.81-2.16-7.38-2.449
		c-0.23,0.289-0.68,0.85-0.91,1.129c-0.31,1.351-0.6,2.701-0.869,4.061C140.004,19.145,143.254,21.994,145.564,25.634z"/>
	<path fill="#885399" d="M123.584,34.624c0.431-1.921,1.041-3.83,1.09-5.81c-2.34-2.66-5.129-4.9-7.299-7.711
		c-0.11,4.12,1,8.11,2.699,11.84c-2.08,0.83-4.18,1.621-6.289,2.34l0.039,0.011C117.095,35.544,120.375,35.294,123.584,34.624z"/>
	<path fill="#412043" d="M166.584,29.224c-2.1-5.479-8.869-4.96-13.68-5.39c1.58,1.98,4.33,5.71,1.28,7.64
		c-6.33,3.851-14.12,4.32-21.351,3.841c-3.1,0.049-6.209,0.01-9.25-0.69c-3.209,0.67-6.489,0.92-9.76,0.67
		c0.87,0.97,1.95,1.86,3.311,2c5.99,1.05,12.24,1.479,18.199,0.01c2.551,0.69,5.121,1.431,7.791,1.399
		c7.359-0.02,14.72-0.289,22.049-0.989c3.341-0.38,6.841-0.729,9.791-2.5c-0.021-0.39-0.07-1.16-0.1-1.54
		C172.515,31.523,169.404,30.574,166.584,29.224z"/>
	<path fill="#F4DEFF" d="M454.336,32.194c0.032,0.003,0.054-0.001,0.084,0c0.154-0.003,0.3-0.002,0.437,0.004
		c1.276-0.051,1.328-0.556,1.021,0.596c2.188,0.503,4.421,0.531,6.649,0.495c0.453-0.64,0.904-1.287,1.363-1.919
		c-0.572-0.812-1.147-1.617-1.725-2.423c3.249-0.538,6.539-1.104,9.509-2.615c-1.661-2.616-3.996-4.663-6.49-6.439
		c0.193-0.977,0.403-1.947,0.625-2.918l0.202-0.905c-3.465,0.266-6.836-0.431-10.183-1.178c-0.979,1.215-1.652,2.652-2.73,3.78
		c-1.479,0.998-3.229,1.496-4.722,2.479c-0.898,1.036-0.158,2.466-0.13,3.672c-0.862,1.223-1.926,2.359-2.45,3.788
		c-0.202,2.041,1.473,3.623,3.039,4.657c0.311-0.105,0.806-0.245,1.386-0.389C451.456,32.544,453.246,32.128,454.336,32.194z
		 M456.662,19.081c1.529-1.57,2.135-2.844,4.354-2.916c2.221-0.073,1.989,0,1.989,0s-3.701,0.821-3.421,1.554
		c0.28,0.734-2.128-0.748-2.021,6.378C457.563,24.097,455.134,20.651,456.662,19.081z"/>
	<path fill="#885399" d="M471.676,26.333c-2.97,1.51-6.26,2.077-9.509,2.615c0.576,0.806,1.151,1.611,1.725,2.423
		c-0.459,0.632-0.91,1.279-1.363,1.919c5.194,0.345,10.793,0.008,15.343-2.76c2.189-1.386,0.216-4.066-0.92-5.49
		c-1.016-0.913-2.134-1.682-3.197-2.516c-0.49-1.582-0.661-3.45-1.983-4.599c-1.509-1.164-3.456-1.552-5.304-1.761
		c-0.165,0.208-0.489,0.611-0.655,0.811c-0.222,0.972-0.432,1.942-0.625,2.918C467.68,21.67,470.015,23.718,471.676,26.333z"/>
	<path fill="#585369" d="M468.086,35.581c0.606,0.088,1.217,0.152,1.837,0.144c1.347-0.003,2.694-0.019,4.041-0.047
		c-0.958-0.115-1.91-0.25-2.854-0.386C470.109,35.422,469.1,35.511,468.086,35.581z"/>
	<path fill="#412043" d="M460.992,34.075c2.62,0.317,5.296,0.336,7.964,0.313c6.224,0.218,12.929,0.004,18.377-1.746
		c2.625-0.876,0.258-2.572-1.104-3.473c0.391,0.019,0.796,0.032,1.21,0.045c-0.223-0.098-0.44-0.197-0.658-0.302
		c-1.509-3.938-6.373-3.565-9.83-3.873c1.136,1.423,3.109,4.104,0.92,5.49c-4.55,2.768-10.147,3.105-15.343,2.76
		c-2.229,0.036-4.462,0.008-6.649-0.495c-0.343,1.294-7.185,0.452-7.013,0.48c0.626,0.697,1.403,1.337,2.379,1.438
		c1.183,0.207,2.379,0.375,3.582,0.497c-0.882-0.147-1.622-0.471-2.232-0.831C455.409,34.494,458.233,34.379,460.992,34.075z"/>
	<path fill="#585369" d="M454.826,35.21c0.2,0.032,0.398,0.066,0.615,0.078c4.153,0.384,8.448,0.577,12.645,0.292
		c-1.271-0.187-2.521-0.525-3.762-0.862C461.217,35.485,458.002,35.529,454.826,35.21z"/>
	<path fill="#412043" d="M498.005,31.619c-1.638-2.258-6.571-2.275-10.565-2.404c1.843,0.823,3.782,1.517,5.292,2.896
		c0.022,0.273,0.059,0.827,0.073,1.107c-2.121,1.272-4.637,1.524-7.037,1.797c-3.927,0.375-7.863,0.578-11.804,0.663
		c1.265,0.149,2.543,0.26,3.852,0.251c6.334-0.009,12.67-0.132,18.979-0.45c2.875-0.173,5.887-0.332,8.427-1.137
		c-0.019-0.176-0.061-0.527-0.087-0.7C503.109,32.665,500.434,32.234,498.005,31.619z"/>
	<path fill="#412043" d="M492.805,33.218c-0.016-0.28-0.051-0.834-0.073-1.107c-1.51-1.379-3.449-2.073-5.292-2.896
		c-0.414-0.014-0.819-0.027-1.209-0.045c1.36,0.901,3.729,2.596,1.104,3.473c-5.448,1.75-12.153,1.964-18.377,1.746
		c-2.668,0.023-5.344,0.004-7.964-0.313c-2.759,0.304-5.583,0.418-8.398,0.304c0.61,0.359,1.352,0.684,2.232,0.831
		c3.176,0.319,6.391,0.275,9.498-0.491c1.239,0.336,2.489,0.675,3.762,0.862c1.014-0.07,2.023-0.158,3.022-0.289
		c0.944,0.136,1.896,0.271,2.854,0.386c3.939-0.085,7.877-0.288,11.804-0.663C488.168,34.742,490.684,34.49,492.805,33.218z"/>
	<path fill="#885399" d="M459.586,17.719c-0.28-0.733,3.421-1.554,3.421-1.554s0.23-0.073-1.989,0
		c-2.221,0.072-2.825,1.346-4.354,2.916c-1.528,1.57,0.901,5.016,0.901,5.016C457.458,16.971,459.866,18.453,459.586,17.719z"/>
	<path fill="#885399" d="M455.878,32.795c0.091-0.399-0.34-0.566-1.021-0.596c-0.133,0.005-0.277,0.003-0.437-0.004
		c-1.209,0.035-2.918,0.367-4.197,0.685c-0.791,0.215-1.356,0.396-1.356,0.396C451.216,33.456,453.574,33.275,455.878,32.795z"/>
	<path fill="#787588" d="M454.855,32.199c0.683,0.03,1.112,0.197,1.021,0.596C456.185,31.643,456.133,32.147,454.855,32.199z"/>
	<path fill="#787588" d="M454.336,32.194c-1.09-0.066-2.88,0.35-4.113,0.685c1.279-0.317,2.988-0.65,4.197-0.685
		C454.39,32.193,454.368,32.197,454.336,32.194z"/>
	<path fill="#885399" d="M455.878,32.795c-2.304,0.48-4.662,0.661-7.013,0.48C448.693,33.247,455.535,34.089,455.878,32.795z"/>
	<path fill="#F4DEFF" d="M42.893,17.155c-2.947,1.065-5.91,2.159-8.923,2.844c-0.553,1.531-1.661,4.593-2.23,6.124
		c2.068,2.216,3.989,5.852,6.659,5.577c1.124-0.027,3.387-0.108,4.526-0.138C42.876,26.751,42.86,21.967,42.893,17.155z"/>
	<path fill="#F4DEFF" d="M31.251,10.238l0.456-3.856c-7.359,0.821-15.566-2.214-21.998,5.414c5.162,5.386,11.349,5.632,17.21,6.343
		C28.662,16.007,30.176,13.382,31.251,10.238z"/>
	<path fill="#885399" d="M26.919,18.139c2.345,0.738,4.69,1.504,7.05,1.86c3.013-0.685,5.976-1.778,8.923-2.844
		c-0.033,4.812-0.016,9.596,0.033,14.407c-1.139,0.029-3.403,0.11-4.526,0.138c9.232,3.72,19.767,6.727,28.559-1.012
		c-7.148-5.469-15.24-4.375-22.453-9.27c3.777-1.313,7.783-1.968,11.088-5.632c-6.123-1.722-12.326-2.188-18.497-3.145
		c-1.807-1.093-4.738-9.267-5.845-2.404C30.176,13.382,28.662,16.007,26.919,18.139z"/>
	<path fill="#F4DEFF" d="M225.737,48.37c3.295-1.144,6.994-0.27,10.193-1.739c-0.452-5.149-4.391-8.915-7.369-12.796
		c-5.591,0.183-10.683-2.305-15.563-4.698c-3.074,2.998-5.966,6.283-7.983,10.087c-1.124,3.142-1.335,6.571-1.172,9.886
		c2.094,1.499,4.583,2.335,6.802,3.632c2.757,1.556,5.688,3.382,8.983,3.113c0.211-0.365,0.625-1.105,0.836-1.47
		C221.702,52.03,223.095,49.369,225.737,48.37z"/>
	<path fill="#885399" d="M244.577,44.748c-0.999-0.596-2.027-1.096-3.026-1.681c-2.911-1.201-2.268-5.227-4.717-6.898
		c-2.421-1.663-5.457-1.893-8.272-2.335c2.978,3.881,6.917,7.647,7.369,12.796c-3.199,1.47-6.898,0.596-10.193,1.739
		c-2.642,0.999-4.035,3.66-5.274,6.015l0.163,0.759c1.902,1.518,4.804,0.432,7.09,0.797c6.648-0.894,13.95-1.114,19.695-4.929
		C248.092,48.504,246.075,46.468,244.577,44.748z"/>
	<path fill="#F4DEFF" d="M546.354,42.932l0.341-1.499c-5.317,1.131-10.576,3.11-14.268,7.296c2.22,1.498,4.453,2.983,6.73,4.425
		C542.945,50.835,546.168,47.653,546.354,42.932z"/>
	<path fill="#412043" d="M265.635,52.279c-1.777-0.979-3.641-1.786-5.515-2.564c-0.989-1.297-1.671-3.112-3.43-3.535
		c-3.891-1.307-8.05-1.413-12.114-1.432c1.499,1.72,3.516,3.756,2.834,6.264c-5.745,3.814-13.046,4.035-19.695,4.929
		c6.917,3.545,14.814,1.979,22.24,1.97C256.759,57.116,266.421,54.277,265.635,52.279z"/>
	<path fill="#885399" d="M548.445,45.081c-0.523-0.538-1.57-1.611-2.092-2.149c-0.187,4.722-3.408,7.903-7.196,10.222
		c2.248,0.339,4.481,0.764,6.716,1.201c2.643-1.484,5.287-2.997,8.044-4.298C552.896,47.611,550.777,46.141,548.445,45.081z"/>
	<path fill="#412043" d="M553.917,50.056c-2.757,1.302-5.401,2.814-8.044,4.298c9.019,2.319,18.575,5.062,27.837,2.347
		C567.404,53.932,561.185,48.686,553.917,50.056z"/>
	<path fill="#F4DEFF" d="M80.511,55.65c0.5-0.239,1.03-0.82,1.561-1.599c0.253-0.398,0.51-0.84,0.76-1.3l-2.924,0.222l5.508-7.214
		c0.056-0.09,0.118-0.166,0.183-0.239l2.174-2.848l0,0c0.745-1.194,1.299-2.262,1.308-2.278c-0.511-0.267-1.313-0.359-2.519-0.189
		c-7.333,1.035-10.333,7.504-10.333,7.504s0-3.799,2.13,5.47c0.448,1.948,1.071,2.657,1.774,2.579
		C79.863,55.74,79.688,55.707,80.511,55.65z"/>
	<path fill="#F4DEFF" d="M85.415,45.759l-5.508,7.214l2.924-0.222c1.034-1.905,1.94-0.253,1.979-0.346
		c0.002-0.005,0.004-0.01,0.006-0.016C84.817,52.386,84.295,47.558,85.415,45.759z"/>
	<path fill="#E1E1F1" d="M87.771,42.672L87.771,42.672l-2.174,2.848c0.037-0.042,0.069-0.093,0.108-0.129
		C86.388,44.765,87.146,43.675,87.771,42.672z"/>
	<path fill="#885399" d="M89.396,43.368c2.918,1.27,8.775,3.923,9.146,4.912c-0.031-0.774-0.094-1.488-0.211-2.034
		c-0.531-2.469-9.25-5.854-9.25-5.854s-0.001,0.002-0.001,0.003C90.069,40.912,89.939,42.097,89.396,43.368z"/>
	<path fill="#885399" d="M89.396,43.368c-0.881,2.061-2.836,4.341-2.836,4.341s-0.716,2.186-1.743,4.68l0,0
		c0,0,1.076-2.962,4.263-0.683c3.187,2.279,9.25-0.95,9.25-0.95s0.32,0.257,0.211-2.478C98.172,47.291,92.315,44.638,89.396,43.368z
		"/>
	<path fill="#885399" d="M85.415,45.759l0.183-0.239C85.533,45.593,85.471,45.669,85.415,45.759z"/>
	<path fill="#885399" d="M89.396,43.368c0.543-1.271,0.673-2.456-0.317-2.973c-0.008,0.016-0.563,1.084-1.308,2.278
		C87.772,42.672,88.42,42.943,89.396,43.368z"/>
	<path fill="#885399" d="M84.817,52.389c1.026-2.495,1.743-4.68,1.743-4.68s1.956-2.28,2.836-4.341
		c-0.976-0.424-1.624-0.695-1.625-0.695c-0.625,1.003-1.383,2.092-2.065,2.719c-0.04,0.036-0.072,0.086-0.108,0.129l-0.183,0.239
		C84.295,47.558,84.817,52.386,84.817,52.389z"/>
	<path fill="#885399" d="M82.072,54.051c-0.577,0.906-1.136,1.57-1.553,1.598c-0.003,0-0.005,0-0.008,0
		c-0.129,0.062-0.255,0.094-0.38,0.108c0.175,0.011,0.388,0.016,0.388,0.016s2.573,0.341,5.25,0.571l-2.917-3.568
		C82.594,53.24,82.333,53.668,82.072,54.051z"/>
	<path fill="#885399" d="M91.631,56.265c0,0-5.75-1.234-5.556-3.134c0.194-1.9-1.257-0.742-1.257-0.742s-0.006,0.014-0.006,0.016
		c-0.579,1.405-1.256-0.894-1.959,0.371l2.917,3.568C88.413,56.571,91.159,56.689,91.631,56.265z"/>
	<path fill="#885399" d="M82.072,54.051c0.261-0.383,0.522-0.811,0.78-1.275l-0.021-0.025
		C82.582,53.211,82.325,53.653,82.072,54.051z"/>
	<path fill="#885399" d="M80.131,55.758c0.125-0.014,0.251-0.046,0.38-0.108C79.688,55.707,79.863,55.74,80.131,55.758z"/>
	<path fill="#885399" d="M82.852,52.776c0.703-1.265,1.38,1.034,1.959-0.371c-0.039,0.093-0.945-1.56-1.979,0.346L82.852,52.776z"/>
</g>
<path fill="#F4DEFF" d="M376.803,12.4c-2.26,0.958-4.504,1.919-6.826,2.693c-19.471,5.121-40.147,4.52-59.789,0.695
	c-2.739,0.169-5.465-0.015-8.174-0.464c-3.419,3.916-6.64,8.064-8.836,12.801c0.571,0.185,1.687,0.556,2.243,0.742
	c11.688-0.372,23.264,1.825,34.949,1.704c17.195,0.339,36.467-2.85,48.136-16.763C378.072,13.452,377.221,12.755,376.803,12.4z"/>
<path fill="#885399" d="M391.415,26.191c-4.149-4.412-8.004-9.118-11.331-14.163c-0.387,0.433-1.191,1.33-1.579,1.781
	c-11.669,13.914-30.938,17.102-48.136,16.763c-11.686,0.121-23.264-2.076-34.949-1.704c2.213,0.789,4.41,1.563,6.625,2.336
	c2.569,0.511,5.139,1.085,7.691,1.69c18.142,1.53,36.421,1.995,54.606,1.052c9.255-0.296,18.203-2.772,27.148-4.94
	C391.462,28.311,391.43,26.902,391.415,26.191z"/>
<g>
	<path fill="#F4DEFF" d="M375.316,10.295c-22.645-6.099-46.758-4.582-69.494,0.263c-0.079,1.332-0.141,2.677-0.219,4.025
		c1.146,0.293,3.438,0.913,4.584,1.206c4.658-2.878,10.338-1.501,15.492-2.152c7.924-0.774,15.864,0.233,23.803-0.061
		c6.843-0.094,13.9-0.836,20.494,1.518c2.321-0.774,4.565-1.735,6.826-2.693C376.432,11.875,375.688,10.821,375.316,10.295z"/>
</g>
<g>
	<path fill="#6E3E7F" d="M369.977,15.094c-6.593-2.354-13.65-1.611-20.492-1.518c-7.938,0.293-15.881-0.713-23.803,0.061
		c-5.154,0.651-10.836-0.726-15.494,2.152C329.828,19.613,350.506,20.215,369.977,15.094z"/>
</g>
<g>
	<path fill="#412043" d="M401.057,29.844c-3.312-0.914-6.578-2.059-9.642-3.652c0.015,0.71,0.047,2.119,0.077,2.815
		c-8.945,2.168-17.895,4.644-27.148,4.94c-18.187,0.943-36.466,0.478-54.605-1.052c27.148,8.265,55.828,12.428,84.215,10.369
		c6.517-0.372,12.924-1.998,18.837-4.752C411.644,32.831,405.948,31.144,401.057,29.844z"/>
</g>
</svg>
